  0
SECTION
  2
HEADER
  9
$ACADVER
  1
AC1021
  9
$ACADMAINTVER
 70
25
  9
$DWGCODEPAGE
  3
ansi_1252
  9
$TITLE
  1

  9
$SUBJECT
  1

  9
$AUTHOR
  1

  9
$KEYWORDS
  1

  9
$COMMENTS
  1

  9
$LASTSAVEDBY
  1

  9
$REVISIONNUMBER
  1

  9
$INSBASE
 10
0
 20
0
 30
0
  9
$EXTMIN
 10
-2.5
 20
-1991
 30
0
  9
$EXTMAX
 10
2861
 20
2.5
 30
0
  9
$LIMMIN
 10
0
 20
0
  9
$LIMMAX
 10
12
 20
9
  9
$SNAPMODE
 70
0
  9
$SNAPUNIT
 10
1
 20
1
  9
$SNAPBASE
 10
0
 20
0
  9
$SNAPANG
 50
0
  9
$SNAPSTYLE
 70
0
  9
$SNAPISOPAIR
 70
0
  9
$ORTHOMODE
 70
0
  9
$REGENMODE
 70
1
  9
$FILLMODE
 70
1
  9
$QTEXTMODE
 70
0
  9
$MIRRTEXT
 70
1
  9
$LTSCALE
 40
1
  9
$OSMODE
 70
0
  9
$ATTMODE
 70
1
  9
$TEXTSIZE
 40
0.2
  9
$TRACEWID
 40
0.05
  9
$TEXTSTYLE
  7
Standard
  9
$CLAYER
  8
0
  9
$CELTYPE
  6
ByLayer
  9
$CECOLOR
 62
256
  9
$CELTSCALE
 40
1
  9
$DISPSILH
 70
0
  9
$DIMSCALE
 40
1
  9
$DIMASZ
 40
20
  9
$DIMEXO
 40
0.0625
  9
$DIMDLI
 40
0.38
  9
$DIMRND
 40
0
  9
$DIMDLE
 40
0
  9
$DIMEXE
 40
0.18
  9
$DIMTP
 40
0
  9
$DIMTM
 40
0
  9
$DIMTXT
 40
20
  9
$DIMCEN
 40
0.09
  9
$DIMTSZ
 40
0
  9
$DIMTOL
 70
0
  9
$DIMLIM
 70
0
  9
$DIMTIH
 70
0
  9
$DIMTOH
 70
0
  9
$DIMSE1
 70
0
  9
$DIMSE2
 70
0
  9
$DIMTAD
 70
1
  9
$DIMZIN
 70
0
  9
$DIMBLK
  1

  9
$DIMASO
 70
1
  9
$DIMSHO
 70
1
  9
$DIMPOST
  1

  9
$DIMAPOST
  1

  9
$DIMALT
 70
0
  9
$DIMALTD
 70
2
  9
$DIMALTF
 40
1
  9
$DIMLFAC
 40
1
  9
$DIMTOFL
 70
0
  9
$DIMTVP
 40
0
  9
$DIMTIX
 70
0
  9
$DIMSOXD
 70
0
  9
$DIMSAH
 70
0
  9
$DIMBLK1
  1

  9
$DIMBLK2
  1

  9
$DIMSTYLE
  2
Architectural
  9
$DIMCLRD
 70
5
  9
$DIMCLRE
 70
8
  9
$DIMCLRT
 70
0
  9
$DIMTFAC
 40
1
  9
$DIMGAP
 40
0.09
  9
$DIMJUST
 70
0
  9
$DIMSD1
 70
0
  9
$DIMSD2
 70
0
  9
$DIMTOLJ
 70
1
  9
$DIMTZIN
 70
0
  9
$DIMALTZ
 70
0
  9
$DIMALTTZ
 70
0
  9
$DIMUPT
 70
0
  9
$DIMDEC
 70
4
  9
$DIMTDEC
 70
4
  9
$DIMALTU
 70
2
  9
$DIMALTTD
 70
0
  9
$DIMTXSTY
  7
Standard
  9
$DIMAUNIT
 70
0
  9
$DIMADEC
 70
0
  9
$DIMALTRND
 40
0
  9
$DIMAZIN
 70
0
  9
$DIMDSEP
 70
46
  9
$DIMATFIT
 70
3
  9
$DIMFRAC
 70
0
  9
$DIMLDRBLK
  1

  9
$DIMLUNIT
 70
2
  9
$DIMLWD
 70
-2
  9
$DIMLWE
 70
-2
  9
$DIMFXL
 40
1
  9
$DIMFXLON
 70
0
  9
$DIMJOGANG
 40
0.78539816339744828
  9
$DIMTFILL
 70
0
  9
$DIMTFILLCLR
 70
0
  9
$DIMARCSYM
 70
1
  9
$DIMLTYPE
  6
ByBlock
  9
$DIMLTEX1
  6
ByBlock
  9
$DIMLTEX2
  6
ByBlock
  9
$LUNITS
 70
2
  9
$LUPREC
 70
4
  9
$SKETCHINC
 40
0.1
  9
$FILLETRAD
 40
0
  9
$AUNITS
 70
0
  9
$AUPREC
 70
0
  9
$MENU
  1
.
  9
$ELEVATION
 40
0
  9
$PELEVATION
 40
0
  9
$THICKNESS
 40
0
  9
$LIMCHECK
 70
0
  9
$CHAMFERA
 40
0.5
  9
$CHAMFERB
 40
0.5
  9
$CHAMFERC
 40
0
  9
$CHAMFERD
 40
0
  9
$SKPOLY
 70
0
  9
$TDCREATE
 40
2459470.9538596296
  9
$TDUCREATE
 40
2459470.8705262961
  9
$TDUPDATE
 40
2459470.9538596296
  9
$TDUUPDATE
 40
2459470.8705262961
  9
$TDINDWG
 40
0
  9
$TDUSRTIMER
 40
1.1574074074074074E-08
  9
$USRTIMER
 70
1
  9
$ANGBASE
 50
0
  9
$ANGDIR
 70
1
  9
$PDMODE
 70
0
  9
$PDSIZE
 40
0
  9
$PLINEWID
 40
0
  9
$SPLFRAME
 70
0
  9
$SPLINETYPE
 70
6
  9
$SPLINESEGS
 70
8
  9
$HANDSEED
  5
228
  9
$SURFTAB1
 70
6
  9
$SURFTAB2
 70
6
  9
$SURFTYPE
 70
6
  9
$SURFU
 70
6
  9
$SURFV
 70
6
  9
$UCSORG
 10
0
 20
0
 30
0
  9
$UCSXDIR
 10
1
 20
0
 30
0
  9
$UCSYDIR
 10
0
 20
1
 30
0
  9
$UCSORTHOREF
  2

  9
$UCSORTHOVIEW
 70
0
  9
$UCSORGTOP
 10
0
 20
0
 30
0
  9
$UCSORGBOTTOM
 10
0
 20
0
 30
0
  9
$UCSORGLEFT
 10
0
 20
0
 30
0
  9
$UCSORGRIGHT
 10
0
 20
0
 30
0
  9
$UCSORGFRONT
 10
0
 20
0
 30
0
  9
$UCSORGBACK
 10
0
 20
0
 30
0
  9
$PUCSORG
 10
0
 20
0
 30
0
  9
$PUCSXDIR
 10
1
 20
0
 30
0
  9
$PUCSYDIR
 10
0
 20
1
 30
0
  9
$PUCSORTHOREF
  2

  9
$PUCSORTHOVIEW
 70
0
  9
$PUCSORGTOP
 10
0
 20
0
 30
0
  9
$PUCSORGBOTTOM
 10
0
 20
0
 30
0
  9
$PUCSORGLEFT
 10
0
 20
0
 30
0
  9
$PUCSORGRIGHT
 10
0
 20
0
 30
0
  9
$PUCSORGFRONT
 10
0
 20
0
 30
0
  9
$PUCSORGBACK
 10
0
 20
0
 30
0
  9
$USERI1
 70
0
  9
$USERI2
 70
0
  9
$USERI3
 70
0
  9
$USERI4
 70
0
  9
$USERI5
 70
0
  9
$USERR1
 40
0
  9
$USERR2
 40
0
  9
$USERR3
 40
0
  9
$USERR4
 40
0
  9
$USERR5
 40
0
  9
$WORLDVIEW
 70
1
  9
$SHADEDGE
 70
3
  9
$SHADEDIF
 70
70
  9
$TILEMODE
 70
1
  9
$MAXACTVP
 70
48
  9
$PINSBASE
 10
0
 20
0
 30
0
  9
$PLIMCHECK
 70
0
  9
$PEXTMIN
 10
1E+20
 20
1E+20
 30
1E+20
  9
$PEXTMAX
 10
-1E+20
 20
-1E+20
 30
-1E+20
  9
$PLIMMAX
 10
0
 20
0
  9
$PLIMMIN
 10
0
 20
0
  9
$UNITMODE
 70
0
  9
$VISRETAIN
 70
1
  9
$PLINEGEN
 70
1
  9
$PSLTSCALE
 70
1
  9
$TREEDEPTH
 70
3020
  9
$CMLSTYLE
  2
STANDARD
  9
$CMLJUST
 70
0
  9
$CMLSCALE
 40
1
  9
$PROXYGRAPHICS
 70
1
  9
$MEASUREMENT
 70
0
  9
$CELWEIGHT
370
-1
  9
$ENDCAPS
280
0
  9
$JOINSTYLE
280
0
  9
$LWDISPLAY
290
1
  9
$INSUNITS
 70
1
  9
$HYPERLINKBASE
  1

  9
$XEDIT
290
1
  9
$CEPSNTYPE
380
0
  9
$PSTYLEMODE
290
0
  9
$FINGERPRINTGUID
  2

  9
$VERSIONGUID
  2

  9
$EXTNAMES
290
1
  9
$PSVPSCALE
 40
0
  9
$CSHADOW
280
0
  9
$SHADOWPLANELOCATION
 40
0
  9
$SORTENTS
280
127
  9
$INDEXCTL
280
0
  9
$XCLIPFRAME
290
1
  9
$HALOGAP
280
0
  9
$OBSCOLOR
 70
257
  9
$OBSLTYPE
280
0
  9
$INTERSECTIONDISPLAY
280
0
  9
$INTERSECTIONCOLOR
 70
257
  9
$DIMASSOC
280
1
  9
$PROJECTNAME
  1

  9
$INTERFERECOLOR
 62
1
  0
ENDSEC
  0
SECTION
  2
CLASSES
  0
CLASS
  1
TABLESTYLE
  2
AcDbTableStyle
  3
ObjectDBX Classes
 90
4095
 91
1
280
0
281
0
  0
CLASS
  1
CELLSTYLEMAP
  2
AcDbCellStyleMap
  3
ObjectDBX Classes
 90
1152
 91
1
280
0
281
0
  0
CLASS
  1
ACIDBLOCKREFERENCE
  2
AcIdBlockReference
  3
AcIdViewObj|Product: Inventor Drawing Enabler|Company: Autodesk|Website: www.autodesk.com
 90
1
 91
1
280
0
281
1
  0
CLASS
  1
RASTERVARIABLES
  2
AcDbRasterVariables
  3
ISM
 90
0
 91
1
280
0
281
0
  0
CLASS
  1
IMAGEDEF
  2
AcDbRasterImageDef
  3
ISM
 90
0
 91
1
280
0
281
0
  0
CLASS
  1
IMAGEDEF_REACTOR
  2
AcDbRasterImageDefReactor
  3
ISM
 90
1
 91
1
280
0
281
0
  0
CLASS
  1
IMAGE
  2
AcDbRasterImage
  3
ISM
 90
127
 91
1
280
0
281
1
  0
CLASS
  1
ACAD_EVALUATION_GRAPH
  2
AcDbEvalGraph
  3
ObjectDBX Classes
 90
1153
 91
1
280
0
281
0
  0
CLASS
  1
BLOCKPOINTPARAMETER
  2
AcDbBlockPointParameter
  3
ObjectDBX Classes
 90
1153
 91
1
280
0
281
0
  0
CLASS
  1
BLOCKBASEPOINTPARAMETER
  2
AcDbBlockBasepointParameter
  3
ObjectDBX Classes
 90
1153
 91
1
280
0
281
0
  0
CLASS
  1
BLOCKLOOKUPPARAMETER
  2
AcDbBlockLookupParameter
  3
ObjectDBX Classes
 90
1153
 91
1
280
0
281
0
  0
CLASS
  1
BLOCKVISIBILITYPARAMETER
  2
AcDbBlockVisibilityParameter
  3
ObjectDBX Classes
 90
1153
 91
1
280
0
281
0
  0
CLASS
  1
BLOCKPROPERTIESTABLE
  2
AcDbBlockPropertiesTable
  3
ObjectDBX Classes
 90
1153
 91
1
280
0
281
0
  0
CLASS
  1
BLOCKPOLARPARAMETER
  2
AcDbBlockPolarParameter
  3
ObjectDBX Classes
 90
1153
 91
1
280
0
281
0
  0
CLASS
  1
BLOCKROTATIONPARAMETER
  2
AcDbBlockRotationParameter
  3
ObjectDBX Classes
 90
1153
 91
1
280
0
281
0
  0
CLASS
  1
BLOCKLINEARPARAMETER
  2
AcDbBlockLinearParameter
  3
ObjectDBX Classes
 90
1153
 91
1
280
0
281
0
  0
CLASS
  1
BLOCKXYPARAMETER
  2
AcDbBlockXYParameter
  3
ObjectDBX Classes
 90
1153
 91
1
280
0
281
0
  0
CLASS
  1
BLOCKFLIPPARAMETER
  2
AcDbBlockFlipParameter
  3
ObjectDBX Classes
 90
1153
 91
1
280
0
281
0
  0
CLASS
  1
BLOCKALIGNMENTPARAMETER
  2
AcDbBlockAlignmentParameter
  3
ObjectDBX Classes
 90
1153
 91
1
280
0
281
0
  0
CLASS
  1
BLOCKROTATEACTION
  2
AcDbBlockRotateAction
  3
ObjectDBX Classes
 90
1153
 91
1
280
0
281
0
  0
CLASS
  1
BLOCKSCALEACTION
  2
AcDbBlockScaleAction
  3
ObjectDBX Classes
 90
1153
 91
1
280
0
281
0
  0
CLASS
  1
BLOCKARRAYACTION
  2
AcDbBlockArrayAction
  3
ObjectDBX Classes
 90
1153
 91
1
280
0
281
0
  0
CLASS
  1
BLOCKFLIPACTION
  2
AcDbBlockFlipAction
  3
ObjectDBX Classes
 90
1153
 91
1
280
0
281
0
  0
CLASS
  1
BLOCKLOOKUPACTION
  2
AcDbBlockLookupAction
  3
ObjectDBX Classes
 90
1153
 91
1
280
0
281
0
  0
CLASS
  1
BLOCKMOVEACTION
  2
AcDbBlockMoveAction
  3
ObjectDBX Classes
 90
1153
 91
1
280
0
281
0
  0
CLASS
  1
BLOCKPOLARSTRETCHACTION
  2
AcDbBlockPolarStretchAction
  3
ObjectDBX Classes
 90
1153
 91
1
280
0
281
0
  0
CLASS
  1
BLOCKSTRETCHACTION
  2
AcDbBlockStretchAction
  3
ObjectDBX Classes
 90
1153
 91
1
280
0
281
0
  0
CLASS
  1
BLOCKALIGNMENTGRIP
  2
AcDbBlockAlignmentGrip
  3
ObjectDBX Classes
 90
1153
 91
1
280
0
281
0
  0
CLASS
  1
BLOCKFLIPGRIP
  2
AcDbBlockFlipGrip
  3
ObjectDBX Classes
 90
1153
 91
1
280
0
281
0
  0
CLASS
  1
ACDB_BLOCKREPRESENTATION_DATA
  2
AcDbBlockRepresentationData
  3
ObjectDBX Classes
 90
1153
 91
1
280
0
281
0
  0
CLASS
  1
ACDB_DYNAMICBLOCKPURGEPREVENTER_VERSION
  2
AcDbDynamicBlockPurgePreventer
  3
ObjectDBX Classes
 90
1153
 91
1
280
0
281
0
  0
CLASS
  1
BLOCKLINEARGRIP
  2
AcDbBlockLinearGrip
  3
ObjectDBX Classes
 90
1153
 91
1
280
0
281
0
  0
CLASS
  1
BLOCKLOOKUPGRIP
  2
AcDbBlockLookupGrip
  3
ObjectDBX Classes
 90
1153
 91
1
280
0
281
0
  0
CLASS
  1
BLOCKPOLARGRIP
  2
AcDbBlockPolarGrip
  3
ObjectDBX Classes
 90
1153
 91
1
280
0
281
0
  0
CLASS
  1
BLOCKPROPERTIESTABLEGRIP
  2
AcDbBlockPropertiesTableGrip
  3
ObjectDBX Classes
 90
1153
 91
1
280
0
281
0
  0
CLASS
  1
BLOCKROTATIONGRIP
  2
AcDbBlockRotationGrip
  3
ObjectDBX Classes
 90
1153
 91
1
280
0
281
0
  0
CLASS
  1
BLOCKVISIBILITYGRIP
  2
AcDbBlockVisibilityGrip
  3
ObjectDBX Classes
 90
1153
 91
1
280
0
281
0
  0
CLASS
  1
BLOCKXYGRIP
  2
AcDbBlockXYGrip
  3
ObjectDBX Classes
 90
1153
 91
1
280
0
281
0
  0
CLASS
  1
BLOCKGRIPLOCATIONCOMPONENT
  2
AcDbBlockGripExpr
  3
ObjectDBX Classes
 90
1153
 91
1
280
0
281
0
  0
CLASS
  1
ACDB_DYNAMICBLOCKPROXYNODE
  2
AcDbDynamicBlockProxyNode
  3
ObjectDBX Classes
 90
1153
 91
1
280
0
281
0
  0
CLASS
  1
BLOCKLINEARCONSTRAINTPARAMETER
  2
AcDbBlockLinearConstraintParameter
  3
ObjectDBX Classes
 90
1153
 91
1
280
0
281
0
  0
CLASS
  1
BLOCKHORIZONTALCONSTRAINTPARAMETER
  2
AcDbBlockHorizontalConstraintParameter
  3
ObjectDBX Classes
 90
1153
 91
1
280
0
281
0
  0
CLASS
  1
BLOCKVERTICALCONSTRAINTPARAMETER
  2
AcDbBlockVerticalConstraintParameter
  3
ObjectDBX Classes
 90
1153
 91
1
280
0
281
0
  0
CLASS
  1
BLOCKALIGNEDCONSTRAINTPARAMETER
  2
AcDbBlockAlignedConstraintParameter
  3
ObjectDBX Classes
 90
1153
 91
1
280
0
281
0
  0
CLASS
  1
BLOCKANGULARCONSTRAINTPARAMETER
  2
AcDbBlockAngularConstraintParameter
  3
ObjectDBX Classes
 90
1153
 91
1
280
0
281
0
  0
CLASS
  1
BLOCKDIAMETRICCONSTRAINTPARAMETER
  2
AcDbBlockDiametricConstraintParameter
  3
ObjectDBX Classes
 90
1153
 91
1
280
0
281
0
  0
CLASS
  1
BLOCKRADIALCONSTRAINTPARAMETER
  2
AcDbBlockRadialConstraintParameter
  3
ObjectDBX Classes
 90
1153
 91
1
280
0
281
0
  0
ENDSEC
  0
SECTION
  2
TABLES
  0
TABLE
  2
VPORT
  5
8
330
0
100
AcDbSymbolTable
 70
1
  0
VPORT
  5
201
330
8
100
AcDbSymbolTableRecord
100
AcDbViewportTableRecord
  2
*Active
 70
64
 10
0
 20
0
 11
1
 21
1
 12
0
 22
0
 13
0
 23
0
 14
1
 24
1
 15
0
 25
0
 16
0
 26
0
 36
1
 17
0
 27
0
 37
0
 40
3000
 41
1
 42
50
 43
0
 44
0
 50
0
 51
0
 71
0
 72
1000
 73
0
 74
1
 75
0
 76
0
 77
0
 78
0
281
0
 65
1
110
0
120
0
130
0
111
1
121
0
131
0
112
0
122
1
132
0
 79
0
146
0
 60
2
 61
5
292
1
282
1
141
0
142
0
 63
250
421
3355443
  0
ENDTAB
  0
TABLE
  2
LTYPE
  5
5
100
AcDbSymbolTable
 70
3
  0
LTYPE
  5
16
330
5
100
AcDbSymbolTableRecord
100
AcDbLinetypeTableRecord
  2
Continuous
  3
Solid line
 70
64
 72
65
 73
0
 40
0
  0
LTYPE
  5
14
330
5
100
AcDbSymbolTableRecord
100
AcDbLinetypeTableRecord
  2
ByBlock
  3

 70
64
 72
65
 73
0
 40
0
  0
LTYPE
  5
15
330
5
100
AcDbSymbolTableRecord
100
AcDbLinetypeTableRecord
  2
ByLayer
  3

 70
64
 72
65
 73
0
 40
0
  0
ENDTAB
  0
TABLE
  2
LAYER
  5
2
100
AcDbSymbolTable
 70
3
  0
LAYER
  5
10
330
2
100
AcDbSymbolTableRecord
100
AcDbLayerTableRecord
 70
64
  2
0
 62
7
  6
Continuous
370
-3
390
F
  0
LAYER
  5
27
330
2
100
AcDbSymbolTableRecord
100
AcDbLayerTableRecord
 70
64
  2
-1
 62
7
  6
Continuous
370
-3
390
F
  0
LAYER
  5
28
330
2
100
AcDbSymbolTableRecord
100
AcDbLayerTableRecord
 70
64
  2
DEFPOINTS
 62
7
  6
Continuous
290
0
370
-3
390
F
  0
ENDTAB
  0
TABLE
  2
STYLE
  5
3
100
AcDbSymbolTable
 70
17
  0
STYLE
  5
11
330
3
100
AcDbSymbolTableRecord
100
AcDbTextStyleTableRecord
  2
Standard
 70
64
 40
0
 41
1
 50
0
 71
0
 42
0.2
  3
txt.shx
  0
STYLE
  5
1F0
330
3
100
AcDbSymbolTableRecord
100
AcDbTextStyleTableRecord
  2
Arial
 70
64
 40
0
 41
1
 50
0
 71
0
 42
0.2
  3
arial.ttf
  0
STYLE
  5
1F1
330
3
100
AcDbSymbolTableRecord
100
AcDbTextStyleTableRecord
  2
Arial
 70
64
 40
0
 41
1
 50
0
 71
0
 42
0.2
  3
arial.ttf
  0
STYLE
  5
1F2
330
3
100
AcDbSymbolTableRecord
100
AcDbTextStyleTableRecord
  2
Arial
 70
64
 40
0
 41
1
 50
0
 71
0
 42
0.2
  3
arial.ttf
  0
STYLE
  5
1F3
330
3
100
AcDbSymbolTableRecord
100
AcDbTextStyleTableRecord
  2
Arial
 70
64
 40
0
 41
1
 50
0
 71
0
 42
0.2
  3
arial.ttf
  0
STYLE
  5
1F4
330
3
100
AcDbSymbolTableRecord
100
AcDbTextStyleTableRecord
  2
Arial
 70
64
 40
0
 41
1
 50
0
 71
0
 42
0.2
  3
arial.ttf
  0
STYLE
  5
1F5
330
3
100
AcDbSymbolTableRecord
100
AcDbTextStyleTableRecord
  2
Arial
 70
64
 40
0
 41
1
 50
0
 71
0
 42
0.2
  3
arial.ttf
  0
STYLE
  5
1F6
330
3
100
AcDbSymbolTableRecord
100
AcDbTextStyleTableRecord
  2
Arial
 70
64
 40
0
 41
1
 50
0
 71
0
 42
0.2
  3
arial.ttf
  0
STYLE
  5
1F7
330
3
100
AcDbSymbolTableRecord
100
AcDbTextStyleTableRecord
  2
Arial
 70
64
 40
0
 41
1
 50
0
 71
0
 42
0.2
  3
arial.ttf
  0
STYLE
  5
1F8
330
3
100
AcDbSymbolTableRecord
100
AcDbTextStyleTableRecord
  2
Arial
 70
64
 40
0
 41
1
 50
0
 71
0
 42
0.2
  3
arial.ttf
  0
STYLE
  5
1F9
330
3
100
AcDbSymbolTableRecord
100
AcDbTextStyleTableRecord
  2
Arial
 70
64
 40
0
 41
1
 50
0
 71
0
 42
0.2
  3
arial.ttf
  0
STYLE
  5
1FA
330
3
100
AcDbSymbolTableRecord
100
AcDbTextStyleTableRecord
  2
Arial
 70
64
 40
0
 41
1
 50
0
 71
0
 42
0.2
  3
arial.ttf
  0
STYLE
  5
1FB
330
3
100
AcDbSymbolTableRecord
100
AcDbTextStyleTableRecord
  2
Arial
 70
64
 40
0
 41
1
 50
0
 71
0
 42
0.2
  3
arial.ttf
  0
STYLE
  5
1FC
330
3
100
AcDbSymbolTableRecord
100
AcDbTextStyleTableRecord
  2
Arial
 70
64
 40
0
 41
1
 50
0
 71
0
 42
0.2
  3
arial.ttf
  0
STYLE
  5
1FD
330
3
100
AcDbSymbolTableRecord
100
AcDbTextStyleTableRecord
  2
Arial
 70
64
 40
0
 41
1
 50
0
 71
0
 42
0.2
  3
arial.ttf
  0
STYLE
  5
1FE
330
3
100
AcDbSymbolTableRecord
100
AcDbTextStyleTableRecord
  2
Arial
 70
64
 40
0
 41
1
 50
0
 71
0
 42
0.2
  3
arial.ttf
  0
STYLE
  5
1FF
330
3
100
AcDbSymbolTableRecord
100
AcDbTextStyleTableRecord
  2
Arial
 70
64
 40
0
 41
1
 50
0
 71
0
 42
0.2
  3
arial.ttf
  0
ENDTAB
  0
TABLE
  2
VIEW
  5
6
100
AcDbSymbolTable
 70
0
  0
ENDTAB
  0
TABLE
  2
UCS
  5
7
100
AcDbSymbolTable
 70
0
  0
ENDTAB
  0
TABLE
  2
APPID
  5
9
330
0
100
AcDbSymbolTable
 70
2
  0
APPID
  5
12
330
9
100
AcDbSymbolTableRecord
100
AcDbRegAppTableRecord
  2
ACAD
 70
64
  0
APPID
  5
226
330
9
100
AcDbSymbolTableRecord
100
AcDbRegAppTableRecord
  2
ACAD_MLEADERVER
 70
64
  0
ENDTAB
  0
TABLE
  2
DIMSTYLE
  5
A
330
0
100
AcDbSymbolTable
 70
1
100
AcDbDimStyleTable
 71
0
  0
DIMSTYLE
105
200
330
A
100
AcDbSymbolTableRecord
100
AcDbDimStyleTableRecord
  2
Architectural
 70
64
  3

  4

 40
1
 41
20
 42
0.0625
 43
0.38
 44
0.18
 45
0
 46
0
 47
0
 48
0
140
20
141
0.09
142
0
143
1
144
1
145
0
146
1
147
0.09
148
0
 71
0
 72
0
 73
0
 74
0
 75
0
 76
0
 77
1
 78
0
 79
0
170
0
171
2
172
0
173
0
174
0
175
0
176
5
177
8
179
0
271
4
272
4
273
2
274
0
275
0
276
0
277
2
278
46
279
0
280
0
281
0
282
0
283
1
284
0
285
0
286
0
288
0
289
3
340
11
371
-2
372
-2
  0
ENDTAB
  0
TABLE
  2
BLOCK_RECORD
  5
1
330
0
100
AcDbSymbolTable
 70
3
  0
BLOCK_RECORD
  5
29
330
1
100
AcDbSymbolTableRecord
100
AcDbBlockTableRecord
  2
C--Program_Files-ProfiCAD-proficad_library-_TB-standard4_new-ptb
 70
1
280
1
281
0
  0
BLOCK_RECORD
  5
1F
330
1
100
AcDbSymbolTableRecord
100
AcDbBlockTableRecord
  2
*Model_Space
340
22
 70
1
280
1
281
0
  0
BLOCK_RECORD
  5
1ED
330
1
100
AcDbSymbolTableRecord
100
AcDbBlockTableRecord
  2
*Paper_Space
340
1E
 70
1
280
1
281
0
  0
ENDTAB
  0
ENDSEC
  0
SECTION
  2
BLOCKS
  0
BLOCK
  5
2A
330
29
100
AcDbEntity
  8
0
100
AcDbBlockBegin
  2
C--Program_Files-ProfiCAD-proficad_library-_TB-standard4_new-ptb
 70
64
 10
0
 20
0
 30
0
  3
C--Program_Files-ProfiCAD-proficad_library-_TB-standard4_new-ptb
  0
POLYLINE
  5
2B
330
29
100
AcDbEntity
  8
0
100
AcDb2dPolyline
 66
1
 70
1
 10
0
 20
0
 30
0
 40
5
 41
5
  0
VERTEX
  5
2D
330
2B
100
AcDbEntity
  8
0
100
AcDbVertex
100
AcDb2dVertex
 10
-410
 20
-60
 70
0
  0
VERTEX
  5
2E
330
2B
100
AcDbEntity
  8
0
100
AcDbVertex
100
AcDb2dVertex
 10
480
 20
-60
 70
0
  0
VERTEX
  5
2F
330
2B
100
AcDbEntity
  8
0
100
AcDbVertex
100
AcDb2dVertex
 10
480
 20
120
 70
0
  0
VERTEX
  5
30
330
2B
100
AcDbEntity
  8
0
100
AcDbVertex
100
AcDb2dVertex
 10
-410
 20
120
 70
0
  0
SEQEND
  5
2C
100
AcDbEntity
  8
0
  0
POLYLINE
  5
31
330
29
100
AcDbEntity
  8
0
100
AcDb2dPolyline
 66
1
 70
1
 10
0
 20
0
 30
0
 40
5
 41
5
  0
VERTEX
  5
33
330
31
100
AcDbEntity
  8
0
100
AcDbVertex
100
AcDb2dVertex
 10
-410
 20
0
 70
0
  0
VERTEX
  5
34
330
31
100
AcDbEntity
  8
0
100
AcDbVertex
100
AcDb2dVertex
 10
480
 20
0
 70
0
  0
VERTEX
  5
35
330
31
100
AcDbEntity
  8
0
100
AcDbVertex
100
AcDb2dVertex
 10
480
 20
60
 70
0
  0
VERTEX
  5
36
330
31
100
AcDbEntity
  8
0
100
AcDbVertex
100
AcDb2dVertex
 10
-410
 20
60
 70
0
  0
SEQEND
  5
32
100
AcDbEntity
  8
0
  0
POLYLINE
  5
37
330
29
100
AcDbEntity
  8
0
100
AcDb2dPolyline
 66
1
 70
0
 10
0
 20
0
 30
0
 40
5
 41
5
  0
VERTEX
  5
39
330
37
100
AcDbEntity
  8
0
100
AcDbVertex
100
AcDb2dVertex
 10
-410
 20
-60
 70
0
  0
VERTEX
  5
3A
330
37
100
AcDbEntity
  8
0
100
AcDbVertex
100
AcDb2dVertex
 10
480
 20
-60
 70
0
  0
SEQEND
  5
38
100
AcDbEntity
  8
0
  0
POLYLINE
  5
3B
330
29
100
AcDbEntity
  8
0
100
AcDb2dPolyline
 66
1
 70
1
 10
0
 20
0
 30
0
 40
5
 41
5
  0
VERTEX
  5
3D
330
3B
100
AcDbEntity
  8
0
100
AcDbVertex
100
AcDb2dVertex
 10
30
 20
0
 70
0
  0
VERTEX
  5
3E
330
3B
100
AcDbEntity
  8
0
100
AcDbVertex
100
AcDb2dVertex
 10
480
 20
0
 70
0
  0
VERTEX
  5
3F
330
3B
100
AcDbEntity
  8
0
100
AcDbVertex
100
AcDb2dVertex
 10
480
 20
60
 70
0
  0
VERTEX
  5
40
330
3B
100
AcDbEntity
  8
0
100
AcDbVertex
100
AcDb2dVertex
 10
30
 20
60
 70
0
  0
SEQEND
  5
3C
100
AcDbEntity
  8
0
  0
MTEXT
  5
41
330
29
100
AcDbEntity
  8
0
100
AcDbMText
 10
-396
 20
87
 30
0
 11
1
 21
0
 31
0
 40
10
 41
0
 46
0
 71
4
 72
5
  1
Název: Schéma kabeláže PS120
  7
Arial
 73
1
 90
0
  0
MTEXT
  5
42
330
29
100
AcDbEntity
  8
0
100
AcDbMText
 10
-396
 20
27
 30
0
 11
1
 21
0
 31
0
 40
10
 41
0
 46
0
 71
4
 72
5
  1
Autor: Tomáš Kakáč
  7
Arial
 73
1
 90
0
  0
MTEXT
  5
43
330
29
100
AcDbEntity
  8
0
100
AcDbMText
 10
-396
 20
-33
 30
0
 11
1
 21
0
 31
0
 40
10
 41
0
 46
0
 71
4
 72
5
  1
Revize: 
  7
Arial
 73
1
 90
0
  0
MTEXT
  5
44
330
29
100
AcDbEntity
  8
0
100
AcDbMText
 10
44
 20
27
 30
0
 11
1
 21
0
 31
0
 40
10
 41
0
 46
0
 71
4
 72
5
  1
Datum: 20.3.2018
  7
Arial
 73
1
 90
0
  0
MTEXT
  5
45
330
29
100
AcDbEntity
  8
0
100
AcDbMText
 10
53
 20
-31
 30
0
 11
1
 21
0
 31
0
 40
10
 41
0
 46
0
 71
4
 72
5
  1
List: 1
  7
Arial
 73
1
 90
0
  0
POLYLINE
  5
46
330
29
100
AcDbEntity
  8
0
100
AcDb2dPolyline
 66
1
 70
0
 10
0
 20
0
 30
0
 40
5
 41
5
  0
VERTEX
  5
48
330
46
100
AcDbEntity
  8
0
100
AcDbVertex
100
AcDb2dVertex
 10
-410
 20
120
 70
0
  0
VERTEX
  5
49
330
46
100
AcDbEntity
  8
0
100
AcDbVertex
100
AcDb2dVertex
 10
-750
 20
120
 70
0
  0
SEQEND
  5
47
100
AcDbEntity
  8
0
  0
POLYLINE
  5
4A
330
29
100
AcDbEntity
  8
0
100
AcDb2dPolyline
 66
1
 70
0
 10
0
 20
0
 30
0
 40
5
 41
5
  0
VERTEX
  5
4C
330
4A
100
AcDbEntity
  8
0
100
AcDbVertex
100
AcDb2dVertex
 10
-750
 20
120
 70
0
  0
VERTEX
  5
4D
330
4A
100
AcDbEntity
  8
0
100
AcDbVertex
100
AcDb2dVertex
 10
-750
 20
-60
 70
0
  0
SEQEND
  5
4B
100
AcDbEntity
  8
0
  0
POLYLINE
  5
4E
330
29
100
AcDbEntity
  8
0
100
AcDb2dPolyline
 66
1
 70
0
 10
0
 20
0
 30
0
 40
5
 41
5
  0
VERTEX
  5
50
330
4E
100
AcDbEntity
  8
0
100
AcDbVertex
100
AcDb2dVertex
 10
-410
 20
-60
 70
0
  0
VERTEX
  5
51
330
4E
100
AcDbEntity
  8
0
100
AcDbVertex
100
AcDb2dVertex
 10
-750
 20
-60
 70
0
  0
SEQEND
  5
4F
100
AcDbEntity
  8
0
  0
POLYLINE
  5
52
330
29
100
AcDbEntity
  8
0
100
AcDb2dPolyline
 66
1
 70
1
 10
0
 20
0
 30
0
 40
5
 41
5
  0
VERTEX
  5
54
330
52
100
AcDbEntity
  8
0
100
AcDbVertex
100
AcDb2dVertex
 10
30
 20
-60
 70
0
  0
VERTEX
  5
55
330
52
100
AcDbEntity
  8
0
100
AcDbVertex
100
AcDb2dVertex
 10
480
 20
-60
 70
0
  0
VERTEX
  5
56
330
52
100
AcDbEntity
  8
0
100
AcDbVertex
100
AcDb2dVertex
 10
480
 20
0
 70
0
  0
VERTEX
  5
57
330
52
100
AcDbEntity
  8
0
100
AcDbVertex
100
AcDb2dVertex
 10
30
 20
0
 70
0
  0
SEQEND
  5
53
100
AcDbEntity
  8
0
  0
IMAGE
  5
58
330
29
100
AcDbEntity
  8
0
100
AcDbRasterImage
 90
0
 10
-711
 20
-26
 30
0
 11
0.4
 21
0
 31
0
 12
0
 22
0.4
 32
0
 13
650
 23
290
340
217
 70
3
280
0
281
50
282
50
283
0
 71
1
 91
2
 14
-0.5
 24
-0.5
 14
649.5
 24
289.5
  0
ENDBLK
  5
59
330
29
100
AcDbEntity
  8
0
100
AcDbBlockEnd
  0
BLOCK
  5
20
330
1F
100
AcDbEntity
  8
0
100
AcDbBlockBegin
  2
*Model_Space
 70
64
 10
0
 20
0
 30
0
  3
*Model_Space
  0
ENDBLK
  5
21
330
1F
100
AcDbEntity
  8
0
100
AcDbBlockEnd
  0
BLOCK
  5
1EE
330
1ED
100
AcDbEntity
  8
0
 67
1
100
AcDbBlockBegin
  2
*Paper_Space
 70
64
 10
0
 20
0
 30
0
  3
*Paper_Space
  0
ENDBLK
  5
1EF
330
1ED
100
AcDbEntity
  8
0
100
AcDbBlockEnd
  0
ENDSEC
  0
SECTION
  2
ENTITIES
  0
HATCH
  5
5A
330
1F
100
AcDbEntity
  8
0
 62
18
420
0
100
AcDbHatch
 10
0
 20
0
 30
0
210
0
220
0
230
1
  2

 70
0
 71
0
 91
1
 92
16
 93
4
 72
1
 10
180
 20
-200
 11
1080
 21
-200
 72
1
 10
1080
 20
-200
 11
1080
 21
-140
 72
1
 10
1080
 20
-140
 11
180
 21
-140
 72
1
 10
180
 20
-140
 11
180
 21
-200
 97
0
 75
0
 76
0
 52
0
 41
1
 77
0
 78
1
 53
90
 43
0
 44
0
 45
20
 46
0
 79
1
 49
0.02
 98
0
  0
POLYLINE
  5
5B
330
1F
100
AcDbEntity
  8
0
100
AcDb2dPolyline
 66
1
 70
1
 10
0
 20
0
 30
0
 40
2
 41
2
  0
VERTEX
  5
5D
330
5B
100
AcDbEntity
  8
0
100
AcDbVertex
100
AcDb2dVertex
 10
180
 20
-200
 70
0
  0
VERTEX
  5
5E
330
5B
100
AcDbEntity
  8
0
100
AcDbVertex
100
AcDb2dVertex
 10
1080
 20
-200
 70
0
  0
VERTEX
  5
5F
330
5B
100
AcDbEntity
  8
0
100
AcDbVertex
100
AcDb2dVertex
 10
1080
 20
-140
 70
0
  0
VERTEX
  5
60
330
5B
100
AcDbEntity
  8
0
100
AcDbVertex
100
AcDb2dVertex
 10
180
 20
-140
 70
0
  0
SEQEND
  5
5C
100
AcDbEntity
  8
0
  0
HATCH
  5
61
330
1F
100
AcDbEntity
  8
0
 62
18
420
0
100
AcDbHatch
 10
0
 20
0
 30
0
210
0
220
0
230
1
  2

 70
0
 71
0
 91
1
 92
16
 93
4
 72
1
 10
1240
 20
-200
 11
1740
 21
-200
 72
1
 10
1740
 20
-200
 11
1740
 21
-140
 72
1
 10
1740
 20
-140
 11
1240
 21
-140
 72
1
 10
1240
 20
-140
 11
1240
 21
-200
 97
0
 75
0
 76
0
 52
0
 41
1
 77
0
 78
1
 53
90
 43
0
 44
0
 45
20
 46
0
 79
1
 49
0.02
 98
0
  0
POLYLINE
  5
62
330
1F
100
AcDbEntity
  8
0
100
AcDb2dPolyline
 66
1
 70
1
 10
0
 20
0
 30
0
 40
2
 41
2
  0
VERTEX
  5
64
330
62
100
AcDbEntity
  8
0
100
AcDbVertex
100
AcDb2dVertex
 10
1240
 20
-200
 70
0
  0
VERTEX
  5
65
330
62
100
AcDbEntity
  8
0
100
AcDbVertex
100
AcDb2dVertex
 10
1740
 20
-200
 70
0
  0
VERTEX
  5
66
330
62
100
AcDbEntity
  8
0
100
AcDbVertex
100
AcDb2dVertex
 10
1740
 20
-140
 70
0
  0
VERTEX
  5
67
330
62
100
AcDbEntity
  8
0
100
AcDbVertex
100
AcDb2dVertex
 10
1240
 20
-140
 70
0
  0
SEQEND
  5
63
100
AcDbEntity
  8
0
  0
HATCH
  5
68
330
1F
100
AcDbEntity
  8
0
 62
18
420
0
100
AcDbHatch
 10
0
 20
0
 30
0
210
0
220
0
230
1
  2

 70
0
 71
0
 91
1
 92
16
 93
9
 72
1
 10
1060
 20
-120
 11
1260
 21
-120
 72
1
 10
1260
 20
-120
 11
1260
 21
-220
 72
1
 10
1260
 20
-220
 11
1200
 21
-220
 72
1
 10
1200
 20
-220
 11
1200
 21
-280
 72
1
 10
1200
 20
-280
 11
1120
 21
-280
 72
1
 10
1120
 20
-280
 11
1120
 21
-220
 72
1
 10
1120
 20
-220
 11
1060
 21
-220
 72
1
 10
1060
 20
-220
 11
1060
 21
-220
 72
1
 10
1060
 20
-220
 11
1060
 21
-120
 97
0
 75
0
 76
0
 52
0
 41
1
 77
0
 78
1
 53
135
 43
0
 44
0
 45
14.1
 46
0
 79
1
 49
0.02
 98
0
  0
POLYLINE
  5
69
330
1F
100
AcDbEntity
  8
0
100
AcDb2dPolyline
 66
1
 70
1
 10
0
 20
0
 30
0
 40
2
 41
2
  0
VERTEX
  5
6B
330
69
100
AcDbEntity
  8
0
100
AcDbVertex
100
AcDb2dVertex
 10
1060
 20
-120
 70
0
  0
VERTEX
  5
6C
330
69
100
AcDbEntity
  8
0
100
AcDbVertex
100
AcDb2dVertex
 10
1260
 20
-120
 70
0
  0
VERTEX
  5
6D
330
69
100
AcDbEntity
  8
0
100
AcDbVertex
100
AcDb2dVertex
 10
1260
 20
-220
 70
0
  0
VERTEX
  5
6E
330
69
100
AcDbEntity
  8
0
100
AcDbVertex
100
AcDb2dVertex
 10
1200
 20
-220
 70
0
  0
VERTEX
  5
6F
330
69
100
AcDbEntity
  8
0
100
AcDbVertex
100
AcDb2dVertex
 10
1200
 20
-280
 70
0
  0
VERTEX
  5
70
330
69
100
AcDbEntity
  8
0
100
AcDbVertex
100
AcDb2dVertex
 10
1120
 20
-280
 70
0
  0
VERTEX
  5
71
330
69
100
AcDbEntity
  8
0
100
AcDbVertex
100
AcDb2dVertex
 10
1120
 20
-220
 70
0
  0
VERTEX
  5
72
330
69
100
AcDbEntity
  8
0
100
AcDbVertex
100
AcDb2dVertex
 10
1060
 20
-220
 70
0
  0
VERTEX
  5
73
330
69
100
AcDbEntity
  8
0
100
AcDbVertex
100
AcDb2dVertex
 10
1060
 20
-220
 70
0
  0
SEQEND
  5
6A
100
AcDbEntity
  8
0
  0
HATCH
  5
74
330
1F
100
AcDbEntity
  8
0
 62
18
420
0
100
AcDbHatch
 10
0
 20
0
 30
0
210
0
220
0
230
1
  2

 70
0
 71
0
 91
1
 92
16
 93
4
 72
1
 10
1130
 20
-700
 11
1190
 21
-700
 72
1
 10
1190
 20
-700
 11
1190
 21
-260
 72
1
 10
1190
 20
-260
 11
1130
 21
-260
 72
1
 10
1130
 20
-260
 11
1130
 21
-700
 97
0
 75
0
 76
0
 52
0
 41
1
 77
0
 78
1
 53
0
 43
0
 44
0
 45
0
 46
20
 79
1
 49
0.02
 98
0
  0
POLYLINE
  5
75
330
1F
100
AcDbEntity
  8
0
100
AcDb2dPolyline
 66
1
 70
1
 10
0
 20
0
 30
0
 40
2
 41
2
  0
VERTEX
  5
77
330
75
100
AcDbEntity
  8
0
100
AcDbVertex
100
AcDb2dVertex
 10
1130
 20
-700
 70
0
  0
VERTEX
  5
78
330
75
100
AcDbEntity
  8
0
100
AcDbVertex
100
AcDb2dVertex
 10
1190
 20
-700
 70
0
  0
VERTEX
  5
79
330
75
100
AcDbEntity
  8
0
100
AcDbVertex
100
AcDb2dVertex
 10
1190
 20
-260
 70
0
  0
VERTEX
  5
7A
330
75
100
AcDbEntity
  8
0
100
AcDbVertex
100
AcDb2dVertex
 10
1130
 20
-260
 70
0
  0
SEQEND
  5
76
100
AcDbEntity
  8
0
  0
HATCH
  5
7B
330
1F
100
AcDbEntity
  8
0
 62
18
420
0
100
AcDbHatch
 10
0
 20
0
 30
0
210
0
220
0
230
1
  2

 70
0
 71
0
 91
1
 92
16
 93
9
 72
1
 10
1720
 20
-120
 11
1920
 21
-120
 72
1
 10
1920
 20
-120
 11
1920
 21
-220
 72
1
 10
1920
 20
-220
 11
1860
 21
-220
 72
1
 10
1860
 20
-220
 11
1860
 21
-280
 72
1
 10
1860
 20
-280
 11
1780
 21
-280
 72
1
 10
1780
 20
-280
 11
1780
 21
-220
 72
1
 10
1780
 20
-220
 11
1720
 21
-220
 72
1
 10
1720
 20
-220
 11
1720
 21
-220
 72
1
 10
1720
 20
-220
 11
1720
 21
-120
 97
0
 75
0
 76
0
 52
0
 41
1
 77
0
 78
1
 53
135
 43
0
 44
0
 45
14.1
 46
0
 79
1
 49
0.02
 98
0
  0
POLYLINE
  5
7C
330
1F
100
AcDbEntity
  8
0
100
AcDb2dPolyline
 66
1
 70
1
 10
0
 20
0
 30
0
 40
2
 41
2
  0
VERTEX
  5
7E
330
7C
100
AcDbEntity
  8
0
100
AcDbVertex
100
AcDb2dVertex
 10
1720
 20
-120
 70
0
  0
VERTEX
  5
7F
330
7C
100
AcDbEntity
  8
0
100
AcDbVertex
100
AcDb2dVertex
 10
1920
 20
-120
 70
0
  0
VERTEX
  5
80
330
7C
100
AcDbEntity
  8
0
100
AcDbVertex
100
AcDb2dVertex
 10
1920
 20
-220
 70
0
  0
VERTEX
  5
81
330
7C
100
AcDbEntity
  8
0
100
AcDbVertex
100
AcDb2dVertex
 10
1860
 20
-220
 70
0
  0
VERTEX
  5
82
330
7C
100
AcDbEntity
  8
0
100
AcDbVertex
100
AcDb2dVertex
 10
1860
 20
-280
 70
0
  0
VERTEX
  5
83
330
7C
100
AcDbEntity
  8
0
100
AcDbVertex
100
AcDb2dVertex
 10
1780
 20
-280
 70
0
  0
VERTEX
  5
84
330
7C
100
AcDbEntity
  8
0
100
AcDbVertex
100
AcDb2dVertex
 10
1780
 20
-220
 70
0
  0
VERTEX
  5
85
330
7C
100
AcDbEntity
  8
0
100
AcDbVertex
100
AcDb2dVertex
 10
1720
 20
-220
 70
0
  0
VERTEX
  5
86
330
7C
100
AcDbEntity
  8
0
100
AcDbVertex
100
AcDb2dVertex
 10
1720
 20
-220
 70
0
  0
SEQEND
  5
7D
100
AcDbEntity
  8
0
  0
HATCH
  5
87
330
1F
100
AcDbEntity
  8
0
 62
18
420
0
100
AcDbHatch
 10
0
 20
0
 30
0
210
0
220
0
230
1
  2

 70
0
 71
0
 91
1
 92
16
 93
4
 72
1
 10
1790
 20
-640
 11
1850
 21
-640
 72
1
 10
1850
 20
-640
 11
1850
 21
-260
 72
1
 10
1850
 20
-260
 11
1790
 21
-260
 72
1
 10
1790
 20
-260
 11
1790
 21
-640
 97
0
 75
0
 76
0
 52
0
 41
1
 77
0
 78
1
 53
0
 43
0
 44
0
 45
0
 46
20
 79
1
 49
0.02
 98
0
  0
POLYLINE
  5
88
330
1F
100
AcDbEntity
  8
0
100
AcDb2dPolyline
 66
1
 70
1
 10
0
 20
0
 30
0
 40
2
 41
2
  0
VERTEX
  5
8A
330
88
100
AcDbEntity
  8
0
100
AcDbVertex
100
AcDb2dVertex
 10
1790
 20
-640
 70
0
  0
VERTEX
  5
8B
330
88
100
AcDbEntity
  8
0
100
AcDbVertex
100
AcDb2dVertex
 10
1850
 20
-640
 70
0
  0
VERTEX
  5
8C
330
88
100
AcDbEntity
  8
0
100
AcDbVertex
100
AcDb2dVertex
 10
1850
 20
-260
 70
0
  0
VERTEX
  5
8D
330
88
100
AcDbEntity
  8
0
100
AcDbVertex
100
AcDb2dVertex
 10
1790
 20
-260
 70
0
  0
SEQEND
  5
89
100
AcDbEntity
  8
0
  0
HATCH
  5
8E
330
1F
100
AcDbEntity
  8
0
 62
18
420
0
100
AcDbHatch
 10
0
 20
0
 30
0
210
0
220
0
230
1
  2

 70
0
 71
0
 91
1
 92
16
 93
4
 72
1
 10
1900
 20
-200
 11
2280
 21
-200
 72
1
 10
2280
 20
-200
 11
2280
 21
-140
 72
1
 10
2280
 20
-140
 11
1900
 21
-140
 72
1
 10
1900
 20
-140
 11
1900
 21
-200
 97
0
 75
0
 76
0
 52
0
 41
1
 77
0
 78
1
 53
90
 43
0
 44
0
 45
20
 46
0
 79
1
 49
0.02
 98
0
  0
POLYLINE
  5
8F
330
1F
100
AcDbEntity
  8
0
100
AcDb2dPolyline
 66
1
 70
1
 10
0
 20
0
 30
0
 40
2
 41
2
  0
VERTEX
  5
91
330
8F
100
AcDbEntity
  8
0
100
AcDbVertex
100
AcDb2dVertex
 10
1900
 20
-200
 70
0
  0
VERTEX
  5
92
330
8F
100
AcDbEntity
  8
0
100
AcDbVertex
100
AcDb2dVertex
 10
2280
 20
-200
 70
0
  0
VERTEX
  5
93
330
8F
100
AcDbEntity
  8
0
100
AcDbVertex
100
AcDb2dVertex
 10
2280
 20
-140
 70
0
  0
VERTEX
  5
94
330
8F
100
AcDbEntity
  8
0
100
AcDbVertex
100
AcDb2dVertex
 10
1900
 20
-140
 70
0
  0
SEQEND
  5
90
100
AcDbEntity
  8
0
  0
POLYLINE
  5
95
330
1F
100
AcDbEntity
  8
0
100
AcDb2dPolyline
 66
1
 70
0
 10
0
 20
0
 30
0
 40
2
 41
2
  0
VERTEX
  5
97
330
95
100
AcDbEntity
  8
0
100
AcDbVertex
100
AcDb2dVertex
 10
180
 20
-145
 70
0
  0
VERTEX
  5
98
330
95
100
AcDbEntity
  8
0
100
AcDbVertex
100
AcDb2dVertex
 10
160
 20
-145
 70
0
  0
SEQEND
  5
96
100
AcDbEntity
  8
0
  0
POLYLINE
  5
99
330
1F
100
AcDbEntity
  8
0
100
AcDb2dPolyline
 66
1
 70
0
 10
0
 20
0
 30
0
 40
2
 41
2
  0
VERTEX
  5
9B
330
99
100
AcDbEntity
  8
0
100
AcDbVertex
100
AcDb2dVertex
 10
180
 20
-155
 70
0
  0
VERTEX
  5
9C
330
99
100
AcDbEntity
  8
0
100
AcDbVertex
100
AcDb2dVertex
 10
160
 20
-155
 70
0
  0
SEQEND
  5
9A
100
AcDbEntity
  8
0
  0
POLYLINE
  5
9D
330
1F
100
AcDbEntity
  8
0
100
AcDb2dPolyline
 66
1
 70
0
 10
0
 20
0
 30
0
 40
2
 41
2
  0
VERTEX
  5
9F
330
9D
100
AcDbEntity
  8
0
100
AcDbVertex
100
AcDb2dVertex
 10
180
 20
-195
 70
0
  0
VERTEX
  5
A0
330
9D
100
AcDbEntity
  8
0
100
AcDbVertex
100
AcDb2dVertex
 10
160
 20
-195
 70
0
  0
SEQEND
  5
9E
100
AcDbEntity
  8
0
  0
POLYLINE
  5
A1
330
1F
100
AcDbEntity
  8
0
100
AcDb2dPolyline
 66
1
 70
0
 10
0
 20
0
 30
0
 40
2
 41
2
  0
VERTEX
  5
A3
330
A1
100
AcDbEntity
  8
0
100
AcDbVertex
100
AcDb2dVertex
 10
180
 20
-185
 70
0
  0
VERTEX
  5
A4
330
A1
100
AcDbEntity
  8
0
100
AcDbVertex
100
AcDb2dVertex
 10
160
 20
-185
 70
0
  0
SEQEND
  5
A2
100
AcDbEntity
  8
0
  0
POLYLINE
  5
A5
330
1F
100
AcDbEntity
  8
0
100
AcDb2dPolyline
 66
1
 70
0
 10
0
 20
0
 30
0
 40
2
 41
2
  0
VERTEX
  5
A7
330
A5
100
AcDbEntity
  8
0
100
AcDbVertex
100
AcDb2dVertex
 10
180
 20
-175
 70
0
  0
VERTEX
  5
A8
330
A5
100
AcDbEntity
  8
0
100
AcDbVertex
100
AcDb2dVertex
 10
160
 20
-175
 70
0
  0
SEQEND
  5
A6
100
AcDbEntity
  8
0
  0
POLYLINE
  5
A9
330
1F
100
AcDbEntity
  8
0
100
AcDb2dPolyline
 66
1
 70
0
 10
0
 20
0
 30
0
 40
2
 41
2
  0
VERTEX
  5
AB
330
A9
100
AcDbEntity
  8
0
100
AcDbVertex
100
AcDb2dVertex
 10
180
 20
-165
 70
0
  0
VERTEX
  5
AC
330
A9
100
AcDbEntity
  8
0
100
AcDbVertex
100
AcDb2dVertex
 10
160
 20
-165
 70
0
  0
SEQEND
  5
AA
100
AcDbEntity
  8
0
  0
POLYLINE
  5
AD
330
1F
100
AcDbEntity
  8
0
100
AcDb2dPolyline
 66
1
 70
0
 10
0
 20
0
 30
0
 40
2
 41
2
  0
VERTEX
  5
AF
330
AD
100
AcDbEntity
  8
0
100
AcDbVertex
100
AcDb2dVertex
 10
160
 20
-145
 70
0
  0
VERTEX
  5
B0
330
AD
100
AcDbEntity
  8
0
100
AcDbVertex
100
AcDb2dVertex
 10
160
 20
-155
 70
0
  0
SEQEND
  5
AE
100
AcDbEntity
  8
0
  0
POLYLINE
  5
B1
330
1F
100
AcDbEntity
  8
0
100
AcDb2dPolyline
 66
1
 70
0
 10
0
 20
0
 30
0
 40
2
 41
2
  0
VERTEX
  5
B3
330
B1
100
AcDbEntity
  8
0
100
AcDbVertex
100
AcDb2dVertex
 10
160
 20
-165
 70
0
  0
VERTEX
  5
B4
330
B1
100
AcDbEntity
  8
0
100
AcDbVertex
100
AcDb2dVertex
 10
160
 20
-175
 70
0
  0
SEQEND
  5
B2
100
AcDbEntity
  8
0
  0
POLYLINE
  5
B5
330
1F
100
AcDbEntity
  8
0
100
AcDb2dPolyline
 66
1
 70
0
 10
0
 20
0
 30
0
 40
2
 41
2
  0
VERTEX
  5
B7
330
B5
100
AcDbEntity
  8
0
100
AcDbVertex
100
AcDb2dVertex
 10
160
 20
-185
 70
0
  0
VERTEX
  5
B8
330
B5
100
AcDbEntity
  8
0
100
AcDbVertex
100
AcDb2dVertex
 10
160
 20
-195
 70
0
  0
SEQEND
  5
B6
100
AcDbEntity
  8
0
  0
POLYLINE
  5
B9
330
1F
100
AcDbEntity
  8
0
100
AcDb2dPolyline
 66
1
 70
0
 10
0
 20
0
 30
0
 40
2
 41
2
  0
VERTEX
  5
BB
330
B9
100
AcDbEntity
  8
0
100
AcDbVertex
100
AcDb2dVertex
 10
160
 20
-150
 70
0
  0
VERTEX
  5
BC
330
B9
100
AcDbEntity
  8
0
100
AcDbVertex
100
AcDb2dVertex
 10
140
 20
-145
 70
0
  0
SEQEND
  5
BA
100
AcDbEntity
  8
0
  0
POLYLINE
  5
BD
330
1F
100
AcDbEntity
  8
0
100
AcDb2dPolyline
 66
1
 70
0
 10
0
 20
0
 30
0
 40
2
 41
2
  0
VERTEX
  5
BF
330
BD
100
AcDbEntity
  8
0
100
AcDbVertex
100
AcDb2dVertex
 10
160
 20
-150
 70
0
  0
VERTEX
  5
C0
330
BD
100
AcDbEntity
  8
0
100
AcDbVertex
100
AcDb2dVertex
 10
140
 20
-155
 70
0
  0
SEQEND
  5
BE
100
AcDbEntity
  8
0
  0
POLYLINE
  5
C1
330
1F
100
AcDbEntity
  8
0
100
AcDb2dPolyline
 66
1
 70
0
 10
0
 20
0
 30
0
 40
2
 41
2
  0
VERTEX
  5
C3
330
C1
100
AcDbEntity
  8
0
100
AcDbVertex
100
AcDb2dVertex
 10
160
 20
-190
 70
0
  0
VERTEX
  5
C4
330
C1
100
AcDbEntity
  8
0
100
AcDbVertex
100
AcDb2dVertex
 10
140
 20
-185
 70
0
  0
SEQEND
  5
C2
100
AcDbEntity
  8
0
  0
POLYLINE
  5
C5
330
1F
100
AcDbEntity
  8
0
100
AcDb2dPolyline
 66
1
 70
0
 10
0
 20
0
 30
0
 40
2
 41
2
  0
VERTEX
  5
C7
330
C5
100
AcDbEntity
  8
0
100
AcDbVertex
100
AcDb2dVertex
 10
160
 20
-170
 70
0
  0
VERTEX
  5
C8
330
C5
100
AcDbEntity
  8
0
100
AcDbVertex
100
AcDb2dVertex
 10
140
 20
-175
 70
0
  0
SEQEND
  5
C6
100
AcDbEntity
  8
0
  0
POLYLINE
  5
C9
330
1F
100
AcDbEntity
  8
0
100
AcDb2dPolyline
 66
1
 70
0
 10
0
 20
0
 30
0
 40
2
 41
2
  0
VERTEX
  5
CB
330
C9
100
AcDbEntity
  8
0
100
AcDbVertex
100
AcDb2dVertex
 10
160
 20
-190
 70
0
  0
VERTEX
  5
CC
330
C9
100
AcDbEntity
  8
0
100
AcDbVertex
100
AcDb2dVertex
 10
140
 20
-195
 70
0
  0
SEQEND
  5
CA
100
AcDbEntity
  8
0
  0
POLYLINE
  5
CD
330
1F
100
AcDbEntity
  8
0
100
AcDb2dPolyline
 66
1
 70
0
 10
0
 20
0
 30
0
 40
2
 41
2
  0
VERTEX
  5
CF
330
CD
100
AcDbEntity
  8
0
100
AcDbVertex
100
AcDb2dVertex
 10
160
 20
-170
 70
0
  0
VERTEX
  5
D0
330
CD
100
AcDbEntity
  8
0
100
AcDbVertex
100
AcDb2dVertex
 10
140
 20
-165
 70
0
  0
SEQEND
  5
CE
100
AcDbEntity
  8
0
  0
POLYLINE
  5
D1
330
1F
100
AcDbEntity
  8
0
100
AcDb2dPolyline
 66
1
 70
0
 10
0
 20
0
 30
0
 40
2
 41
2
  0
VERTEX
  5
D3
330
D1
100
AcDbEntity
  8
0
100
AcDbVertex
100
AcDb2dVertex
 10
1170
 20
-700
 70
0
  0
VERTEX
  5
D4
330
D1
100
AcDbEntity
  8
0
100
AcDbVertex
100
AcDb2dVertex
 10
1170
 20
-720
 70
0
  0
SEQEND
  5
D2
100
AcDbEntity
  8
0
  0
POLYLINE
  5
D5
330
1F
100
AcDbEntity
  8
0
100
AcDb2dPolyline
 66
1
 70
0
 10
0
 20
0
 30
0
 40
2
 41
2
  0
VERTEX
  5
D7
330
D5
100
AcDbEntity
  8
0
100
AcDbVertex
100
AcDb2dVertex
 10
1150
 20
-700
 70
0
  0
VERTEX
  5
D8
330
D5
100
AcDbEntity
  8
0
100
AcDbVertex
100
AcDb2dVertex
 10
1150
 20
-720
 70
0
  0
SEQEND
  5
D6
100
AcDbEntity
  8
0
  0
POLYLINE
  5
D9
330
1F
100
AcDbEntity
  8
0
100
AcDb2dPolyline
 66
1
 70
0
 10
0
 20
0
 30
0
 40
2
 41
2
  0
VERTEX
  5
DB
330
D9
100
AcDbEntity
  8
0
100
AcDbVertex
100
AcDb2dVertex
 10
1150
 20
-720
 70
0
  0
VERTEX
  5
DC
330
D9
100
AcDbEntity
  8
0
100
AcDbVertex
100
AcDb2dVertex
 10
1170
 20
-720
 70
0
  0
SEQEND
  5
DA
100
AcDbEntity
  8
0
  0
POLYLINE
  5
DD
330
1F
100
AcDbEntity
  8
0
100
AcDb2dPolyline
 66
1
 70
0
 10
0
 20
0
 30
0
 40
2
 41
2
  0
VERTEX
  5
DF
330
DD
100
AcDbEntity
  8
0
100
AcDbVertex
100
AcDb2dVertex
 10
1160
 20
-720
 70
0
  0
VERTEX
  5
E0
330
DD
100
AcDbEntity
  8
0
100
AcDbVertex
100
AcDb2dVertex
 10
1150
 20
-740
 70
0
  0
SEQEND
  5
DE
100
AcDbEntity
  8
0
  0
POLYLINE
  5
E1
330
1F
100
AcDbEntity
  8
0
100
AcDb2dPolyline
 66
1
 70
0
 10
0
 20
0
 30
0
 40
2
 41
2
  0
VERTEX
  5
E3
330
E1
100
AcDbEntity
  8
0
100
AcDbVertex
100
AcDb2dVertex
 10
1160
 20
-720
 70
0
  0
VERTEX
  5
E4
330
E1
100
AcDbEntity
  8
0
100
AcDbVertex
100
AcDb2dVertex
 10
1170
 20
-740
 70
0
  0
SEQEND
  5
E2
100
AcDbEntity
  8
0
  0
POLYLINE
  5
E5
330
1F
100
AcDbEntity
  8
0
100
AcDb2dPolyline
 66
1
 70
0
 10
0
 20
0
 30
0
 40
2
 41
2
  0
VERTEX
  5
E7
330
E5
100
AcDbEntity
  8
0
100
AcDbVertex
100
AcDb2dVertex
 10
1830
 20
-640
 70
0
  0
VERTEX
  5
E8
330
E5
100
AcDbEntity
  8
0
100
AcDbVertex
100
AcDb2dVertex
 10
1830
 20
-660
 70
0
  0
SEQEND
  5
E6
100
AcDbEntity
  8
0
  0
POLYLINE
  5
E9
330
1F
100
AcDbEntity
  8
0
100
AcDb2dPolyline
 66
1
 70
0
 10
0
 20
0
 30
0
 40
2
 41
2
  0
VERTEX
  5
EB
330
E9
100
AcDbEntity
  8
0
100
AcDbVertex
100
AcDb2dVertex
 10
1810
 20
-640
 70
0
  0
VERTEX
  5
EC
330
E9
100
AcDbEntity
  8
0
100
AcDbVertex
100
AcDb2dVertex
 10
1810
 20
-660
 70
0
  0
SEQEND
  5
EA
100
AcDbEntity
  8
0
  0
POLYLINE
  5
ED
330
1F
100
AcDbEntity
  8
0
100
AcDb2dPolyline
 66
1
 70
0
 10
0
 20
0
 30
0
 40
2
 41
2
  0
VERTEX
  5
EF
330
ED
100
AcDbEntity
  8
0
100
AcDbVertex
100
AcDb2dVertex
 10
1810
 20
-660
 70
0
  0
VERTEX
  5
F0
330
ED
100
AcDbEntity
  8
0
100
AcDbVertex
100
AcDb2dVertex
 10
1830
 20
-660
 70
0
  0
SEQEND
  5
EE
100
AcDbEntity
  8
0
  0
POLYLINE
  5
F1
330
1F
100
AcDbEntity
  8
0
100
AcDb2dPolyline
 66
1
 70
0
 10
0
 20
0
 30
0
 40
2
 41
2
  0
VERTEX
  5
F3
330
F1
100
AcDbEntity
  8
0
100
AcDbVertex
100
AcDb2dVertex
 10
1820
 20
-660
 70
0
  0
VERTEX
  5
F4
330
F1
100
AcDbEntity
  8
0
100
AcDbVertex
100
AcDb2dVertex
 10
1810
 20
-680
 70
0
  0
SEQEND
  5
F2
100
AcDbEntity
  8
0
  0
POLYLINE
  5
F5
330
1F
100
AcDbEntity
  8
0
100
AcDb2dPolyline
 66
1
 70
0
 10
0
 20
0
 30
0
 40
2
 41
2
  0
VERTEX
  5
F7
330
F5
100
AcDbEntity
  8
0
100
AcDbVertex
100
AcDb2dVertex
 10
1820
 20
-660
 70
0
  0
VERTEX
  5
F8
330
F5
100
AcDbEntity
  8
0
100
AcDbVertex
100
AcDb2dVertex
 10
1830
 20
-680
 70
0
  0
SEQEND
  5
F6
100
AcDbEntity
  8
0
  0
POLYLINE
  5
F9
330
1F
100
AcDbEntity
  8
0
100
AcDb2dPolyline
 66
1
 70
0
 10
0
 20
0
 30
0
 40
2
 41
2
  0
VERTEX
  5
FB
330
F9
100
AcDbEntity
  8
0
100
AcDbVertex
100
AcDb2dVertex
 10
1150
 20
-740
 70
0
  0
VERTEX
  5
FC
330
F9
100
AcDbEntity
  8
0
100
AcDbVertex
100
AcDb2dVertex
 10
1150
 20
-760
 70
0
  0
SEQEND
  5
FA
100
AcDbEntity
  8
0
  0
POLYLINE
  5
FD
330
1F
100
AcDbEntity
  8
0
100
AcDb2dPolyline
 66
1
 70
0
 10
0
 20
0
 30
0
 40
2
 41
2
  0
VERTEX
  5
FF
330
FD
100
AcDbEntity
  8
0
100
AcDbVertex
100
AcDb2dVertex
 10
1170
 20
-740
 70
0
  0
VERTEX
  5
100
330
FD
100
AcDbEntity
  8
0
100
AcDbVertex
100
AcDb2dVertex
 10
1170
 20
-760
 70
0
  0
SEQEND
  5
FE
100
AcDbEntity
  8
0
  0
POLYLINE
  5
101
330
1F
100
AcDbEntity
  8
0
100
AcDb2dPolyline
 66
1
 70
0
 10
0
 20
0
 30
0
 40
2
 41
2
  0
VERTEX
  5
103
330
101
100
AcDbEntity
  8
0
100
AcDbVertex
100
AcDb2dVertex
 10
1810
 20
-680
 70
0
  0
VERTEX
  5
104
330
101
100
AcDbEntity
  8
0
100
AcDbVertex
100
AcDb2dVertex
 10
1810
 20
-700
 70
0
  0
SEQEND
  5
102
100
AcDbEntity
  8
0
  0
POLYLINE
  5
105
330
1F
100
AcDbEntity
  8
0
100
AcDb2dPolyline
 66
1
 70
0
 10
0
 20
0
 30
0
 40
2
 41
2
  0
VERTEX
  5
107
330
105
100
AcDbEntity
  8
0
100
AcDbVertex
100
AcDb2dVertex
 10
1830
 20
-680
 70
0
  0
VERTEX
  5
108
330
105
100
AcDbEntity
  8
0
100
AcDbVertex
100
AcDb2dVertex
 10
1830
 20
-700
 70
0
  0
SEQEND
  5
106
100
AcDbEntity
  8
0
  0
POLYLINE
  5
109
330
1F
100
AcDbEntity
  8
0
100
AcDb2dPolyline
 66
1
 70
0
 10
0
 20
0
 30
0
 40
2
 41
2
  0
VERTEX
  5
10B
330
109
100
AcDbEntity
  8
0
100
AcDbVertex
100
AcDb2dVertex
 10
140
 20
-145
 70
0
  0
VERTEX
  5
10C
330
109
100
AcDbEntity
  8
0
100
AcDbVertex
100
AcDb2dVertex
 10
120
 20
-145
 70
0
  0
SEQEND
  5
10A
100
AcDbEntity
  8
0
  0
POLYLINE
  5
10D
330
1F
100
AcDbEntity
  8
0
100
AcDb2dPolyline
 66
1
 70
0
 10
0
 20
0
 30
0
 40
2
 41
2
  0
VERTEX
  5
10F
330
10D
100
AcDbEntity
  8
0
100
AcDbVertex
100
AcDb2dVertex
 10
140
 20
-165
 70
0
  0
VERTEX
  5
110
330
10D
100
AcDbEntity
  8
0
100
AcDbVertex
100
AcDb2dVertex
 10
120
 20
-165
 70
0
  0
SEQEND
  5
10E
100
AcDbEntity
  8
0
  0
POLYLINE
  5
111
330
1F
100
AcDbEntity
  8
0
100
AcDb2dPolyline
 66
1
 70
0
 10
0
 20
0
 30
0
 40
2
 41
2
  0
VERTEX
  5
113
330
111
100
AcDbEntity
  8
0
100
AcDbVertex
100
AcDb2dVertex
 10
140
 20
-185
 70
0
  0
VERTEX
  5
114
330
111
100
AcDbEntity
  8
0
100
AcDbVertex
100
AcDb2dVertex
 10
120
 20
-185
 70
0
  0
SEQEND
  5
112
100
AcDbEntity
  8
0
  0
POLYLINE
  5
115
330
1F
100
AcDbEntity
  8
0
100
AcDb2dPolyline
 66
1
 70
0
 10
0
 20
0
 30
0
 40
2
 41
2
  0
VERTEX
  5
117
330
115
100
AcDbEntity
  8
0
100
AcDbVertex
100
AcDb2dVertex
 10
140
 20
-155
 70
0
  0
VERTEX
  5
118
330
115
100
AcDbEntity
  8
0
100
AcDbVertex
100
AcDb2dVertex
 10
120
 20
-155
 70
0
  0
SEQEND
  5
116
100
AcDbEntity
  8
0
  0
POLYLINE
  5
119
330
1F
100
AcDbEntity
  8
0
100
AcDb2dPolyline
 66
1
 70
0
 10
0
 20
0
 30
0
 40
2
 41
2
  0
VERTEX
  5
11B
330
119
100
AcDbEntity
  8
0
100
AcDbVertex
100
AcDb2dVertex
 10
140
 20
-175
 70
0
  0
VERTEX
  5
11C
330
119
100
AcDbEntity
  8
0
100
AcDbVertex
100
AcDb2dVertex
 10
120
 20
-175
 70
0
  0
SEQEND
  5
11A
100
AcDbEntity
  8
0
  0
POLYLINE
  5
11D
330
1F
100
AcDbEntity
  8
0
100
AcDb2dPolyline
 66
1
 70
0
 10
0
 20
0
 30
0
 40
2
 41
2
  0
VERTEX
  5
11F
330
11D
100
AcDbEntity
  8
0
100
AcDbVertex
100
AcDb2dVertex
 10
140
 20
-195
 70
0
  0
VERTEX
  5
120
330
11D
100
AcDbEntity
  8
0
100
AcDbVertex
100
AcDb2dVertex
 10
120
 20
-195
 70
0
  0
SEQEND
  5
11E
100
AcDbEntity
  8
0
  0
POLYLINE
  5
121
330
1F
100
AcDbEntity
  8
0
100
AcDb2dPolyline
 66
1
 70
0
 10
0
 20
0
 30
0
 40
2
 41
2
  0
VERTEX
  5
123
330
121
100
AcDbEntity
  8
0
100
AcDbVertex
100
AcDb2dVertex
 10
2280
 20
-160
 70
0
  0
VERTEX
  5
124
330
121
100
AcDbEntity
  8
0
100
AcDbVertex
100
AcDb2dVertex
 10
2300
 20
-160
 70
0
  0
SEQEND
  5
122
100
AcDbEntity
  8
0
  0
POLYLINE
  5
125
330
1F
100
AcDbEntity
  8
0
100
AcDb2dPolyline
 66
1
 70
0
 10
0
 20
0
 30
0
 40
2
 41
2
  0
VERTEX
  5
127
330
125
100
AcDbEntity
  8
0
100
AcDbVertex
100
AcDb2dVertex
 10
2280
 20
-180
 70
0
  0
VERTEX
  5
128
330
125
100
AcDbEntity
  8
0
100
AcDbVertex
100
AcDb2dVertex
 10
2300
 20
-180
 70
0
  0
SEQEND
  5
126
100
AcDbEntity
  8
0
  0
POLYLINE
  5
129
330
1F
100
AcDbEntity
  8
0
100
AcDb2dPolyline
 66
1
 70
0
 10
0
 20
0
 30
0
 40
2
 41
2
  0
VERTEX
  5
12B
330
129
100
AcDbEntity
  8
0
100
AcDbVertex
100
AcDb2dVertex
 10
2300
 20
-180
 70
0
  0
VERTEX
  5
12C
330
129
100
AcDbEntity
  8
0
100
AcDbVertex
100
AcDb2dVertex
 10
2300
 20
-160
 70
0
  0
SEQEND
  5
12A
100
AcDbEntity
  8
0
  0
POLYLINE
  5
12D
330
1F
100
AcDbEntity
  8
0
100
AcDb2dPolyline
 66
1
 70
0
 10
0
 20
0
 30
0
 40
2
 41
2
  0
VERTEX
  5
12F
330
12D
100
AcDbEntity
  8
0
100
AcDbVertex
100
AcDb2dVertex
 10
2300
 20
-170
 70
0
  0
VERTEX
  5
130
330
12D
100
AcDbEntity
  8
0
100
AcDbVertex
100
AcDb2dVertex
 10
2320
 20
-190
 70
0
  0
SEQEND
  5
12E
100
AcDbEntity
  8
0
  0
POLYLINE
  5
131
330
1F
100
AcDbEntity
  8
0
100
AcDb2dPolyline
 66
1
 70
0
 10
0
 20
0
 30
0
 40
2
 41
2
  0
VERTEX
  5
133
330
131
100
AcDbEntity
  8
0
100
AcDbVertex
100
AcDb2dVertex
 10
2300
 20
-170
 70
0
  0
VERTEX
  5
134
330
131
100
AcDbEntity
  8
0
100
AcDbVertex
100
AcDb2dVertex
 10
2320
 20
-150
 70
0
  0
SEQEND
  5
132
100
AcDbEntity
  8
0
  0
POLYLINE
  5
135
330
1F
100
AcDbEntity
  8
0
100
AcDb2dPolyline
 66
1
 70
0
 10
0
 20
0
 30
0
 40
2
 41
2
  0
VERTEX
  5
137
330
135
100
AcDbEntity
  8
0
100
AcDbVertex
100
AcDb2dVertex
 10
2320
 20
-150
 70
0
  0
VERTEX
  5
138
330
135
100
AcDbEntity
  8
0
100
AcDbVertex
100
AcDb2dVertex
 10
2360
 20
-150
 70
0
  0
SEQEND
  5
136
100
AcDbEntity
  8
0
  0
POLYLINE
  5
139
330
1F
100
AcDbEntity
  8
0
100
AcDb2dPolyline
 66
1
 70
0
 10
0
 20
0
 30
0
 40
2
 41
2
  0
VERTEX
  5
13B
330
139
100
AcDbEntity
  8
0
100
AcDbVertex
100
AcDb2dVertex
 10
2320
 20
-190
 70
0
  0
VERTEX
  5
13C
330
139
100
AcDbEntity
  8
0
100
AcDbVertex
100
AcDb2dVertex
 10
2360
 20
-190
 70
0
  0
SEQEND
  5
13A
100
AcDbEntity
  8
0
  0
MTEXT
  5
13D
330
1F
100
AcDbEntity
  8
0
100
AcDbMText
 10
630
 20
-80
 30
0
 11
1
 21
0
 31
0
 40
23
 41
0
 46
0
 71
5
 72
5
  1
3900mm
  7
Arial
 73
1
 90
0
  0
MTEXT
  5
13E
330
1F
100
AcDbEntity
  8
0
100
AcDbMText
 10
1490
 20
-80
 30
0
 11
1
 21
0
 31
0
 40
23
 41
0
 46
0
 71
5
 72
5
  1
1470mm
  7
Arial
 73
1
 90
0
  0
MTEXT
  5
13F
330
1F
100
AcDbEntity
  8
0
100
AcDbMText
 10
2090
 20
-80
 30
0
 11
1
 21
0
 31
0
 40
23
 41
0
 46
0
 71
5
 72
5
  1
75mm (KS) + 110mm
  7
Arial
 73
1
 90
0
  0
MTEXT
  5
140
330
1F
100
AcDbEntity
  8
0
100
AcDbMText
 10
1900
 20
-450
 30
0
 11
6.1230317691118863E-17
 21
1
 31
0
 40
26
 41
0
 46
0
 71
5
 72
5
  1
110mm (IČ)
  7
Arial
 73
1
 90
0
  0
MTEXT
  5
141
330
1F
100
AcDbEntity
  8
0
100
AcDbMText
 10
1240
 20
-510
 30
0
 11
6.1230317691118863E-17
 21
1
 31
0
 40
26
 41
0
 46
0
 71
5
 72
5
  1
430mm
  7
Arial
 73
1
 90
0
  0
MTEXT
  5
142
330
1F
100
AcDbEntity
  8
0
100
AcDbMText
 10
2360
 20
-401
 30
0
 11
1
 21
0
 31
0
 40
23
 41
0
 46
0
 71
5
 72
5
  1
- ochraný plastový krk 16 - 3,9m\P- ochraný plastový krk 13 - 2,085m\P- kabel 1 - 2x0,5 - 5,8m\P- kabel 2 - 2x0,5 - 4,7m
  7
Arial
 73
1
 90
0
  0
POLYLINE
  5
143
330
1F
100
AcDbEntity
  8
0
100
AcDb2dPolyline
 66
1
 70
1
 10
0
 20
0
 30
0
 40
2
 41
2
  0
VERTEX
  5
145
330
143
100
AcDbEntity
  8
0
100
AcDbVertex
100
AcDb2dVertex
 10
0
 20
-1990
 70
0
  0
VERTEX
  5
146
330
143
100
AcDbEntity
  8
0
100
AcDbVertex
100
AcDb2dVertex
 10
2860
 20
-1990
 70
0
  0
VERTEX
  5
147
330
143
100
AcDbEntity
  8
0
100
AcDbVertex
100
AcDb2dVertex
 10
2860
 20
0
 70
0
  0
VERTEX
  5
148
330
143
100
AcDbEntity
  8
0
100
AcDbVertex
100
AcDb2dVertex
 10
0
 20
0
 70
0
  0
SEQEND
  5
144
100
AcDbEntity
  8
0
  0
HATCH
  5
149
330
1F
100
AcDbEntity
  8
0
 62
18
420
0
100
AcDbHatch
 10
0
 20
0
 30
0
210
0
220
0
230
1
  2

 70
0
 71
0
 91
1
 92
16
 93
4
 72
1
 10
400
 20
-1240
 11
2100
 21
-1240
 72
1
 10
2100
 20
-1240
 11
2100
 21
-1180
 72
1
 10
2100
 20
-1180
 11
400
 21
-1180
 72
1
 10
400
 20
-1180
 11
400
 21
-1240
 97
0
 75
0
 76
0
 52
0
 41
1
 77
0
 78
1
 53
90
 43
0
 44
0
 45
20
 46
0
 79
1
 49
0.02
 98
0
  0
POLYLINE
  5
14A
330
1F
100
AcDbEntity
  8
0
100
AcDb2dPolyline
 66
1
 70
1
 10
0
 20
0
 30
0
 40
2
 41
2
  0
VERTEX
  5
14C
330
14A
100
AcDbEntity
  8
0
100
AcDbVertex
100
AcDb2dVertex
 10
400
 20
-1240
 70
0
  0
VERTEX
  5
14D
330
14A
100
AcDbEntity
  8
0
100
AcDbVertex
100
AcDb2dVertex
 10
2100
 20
-1240
 70
0
  0
VERTEX
  5
14E
330
14A
100
AcDbEntity
  8
0
100
AcDbVertex
100
AcDb2dVertex
 10
2100
 20
-1180
 70
0
  0
VERTEX
  5
14F
330
14A
100
AcDbEntity
  8
0
100
AcDbVertex
100
AcDb2dVertex
 10
400
 20
-1180
 70
0
  0
SEQEND
  5
14B
100
AcDbEntity
  8
0
  0
POLYLINE
  5
150
330
1F
100
AcDbEntity
  8
0
100
AcDb2dPolyline
 66
1
 70
0
 10
0
 20
0
 30
0
 40
2
 41
2
  0
VERTEX
  5
152
330
150
100
AcDbEntity
  8
0
100
AcDbVertex
100
AcDb2dVertex
 10
2100
 20
-1200
 70
0
  0
VERTEX
  5
153
330
150
100
AcDbEntity
  8
0
100
AcDbVertex
100
AcDb2dVertex
 10
2280
 20
-1200
 70
0
  0
SEQEND
  5
151
100
AcDbEntity
  8
0
  0
POLYLINE
  5
154
330
1F
100
AcDbEntity
  8
0
100
AcDb2dPolyline
 66
1
 70
0
 10
0
 20
0
 30
0
 40
2
 41
2
  0
VERTEX
  5
156
330
154
100
AcDbEntity
  8
0
100
AcDbVertex
100
AcDb2dVertex
 10
2100
 20
-1220
 70
0
  0
VERTEX
  5
157
330
154
100
AcDbEntity
  8
0
100
AcDbVertex
100
AcDb2dVertex
 10
2280
 20
-1220
 70
0
  0
SEQEND
  5
155
100
AcDbEntity
  8
0
  0
POLYLINE
  5
158
330
1F
100
AcDbEntity
  8
0
100
AcDb2dPolyline
 66
1
 70
0
 10
0
 20
0
 30
0
 40
2
 41
2
  0
VERTEX
  5
15A
330
158
100
AcDbEntity
  8
0
100
AcDbVertex
100
AcDb2dVertex
 10
2280
 20
-1220
 70
0
  0
VERTEX
  5
15B
330
158
100
AcDbEntity
  8
0
100
AcDbVertex
100
AcDb2dVertex
 10
2280
 20
-1200
 70
0
  0
SEQEND
  5
159
100
AcDbEntity
  8
0
  0
POLYLINE
  5
15C
330
1F
100
AcDbEntity
  8
0
100
AcDb2dPolyline
 66
1
 70
0
 10
0
 20
0
 30
0
 40
2
 41
2
  0
VERTEX
  5
15E
330
15C
100
AcDbEntity
  8
0
100
AcDbVertex
100
AcDb2dVertex
 10
2280
 20
-1210
 70
0
  0
VERTEX
  5
15F
330
15C
100
AcDbEntity
  8
0
100
AcDbVertex
100
AcDb2dVertex
 10
2300
 20
-1230
 70
0
  0
SEQEND
  5
15D
100
AcDbEntity
  8
0
  0
POLYLINE
  5
160
330
1F
100
AcDbEntity
  8
0
100
AcDb2dPolyline
 66
1
 70
0
 10
0
 20
0
 30
0
 40
2
 41
2
  0
VERTEX
  5
162
330
160
100
AcDbEntity
  8
0
100
AcDbVertex
100
AcDb2dVertex
 10
2280
 20
-1210
 70
0
  0
VERTEX
  5
163
330
160
100
AcDbEntity
  8
0
100
AcDbVertex
100
AcDb2dVertex
 10
2300
 20
-1190
 70
0
  0
SEQEND
  5
161
100
AcDbEntity
  8
0
  0
POLYLINE
  5
164
330
1F
100
AcDbEntity
  8
0
100
AcDb2dPolyline
 66
1
 70
0
 10
0
 20
0
 30
0
 40
2
 41
2
  0
VERTEX
  5
166
330
164
100
AcDbEntity
  8
0
100
AcDbVertex
100
AcDb2dVertex
 10
2300
 20
-1190
 70
0
  0
VERTEX
  5
167
330
164
100
AcDbEntity
  8
0
100
AcDbVertex
100
AcDb2dVertex
 10
2340
 20
-1190
 70
0
  0
SEQEND
  5
165
100
AcDbEntity
  8
0
  0
POLYLINE
  5
168
330
1F
100
AcDbEntity
  8
0
100
AcDb2dPolyline
 66
1
 70
0
 10
0
 20
0
 30
0
 40
2
 41
2
  0
VERTEX
  5
16A
330
168
100
AcDbEntity
  8
0
100
AcDbVertex
100
AcDb2dVertex
 10
2300
 20
-1230
 70
0
  0
VERTEX
  5
16B
330
168
100
AcDbEntity
  8
0
100
AcDbVertex
100
AcDb2dVertex
 10
2340
 20
-1230
 70
0
  0
SEQEND
  5
169
100
AcDbEntity
  8
0
  0
POLYLINE
  5
16C
330
1F
100
AcDbEntity
  8
0
100
AcDb2dPolyline
 66
1
 70
0
 10
0
 20
0
 30
0
 40
2
 41
2
  0
VERTEX
  5
16E
330
16C
100
AcDbEntity
  8
0
100
AcDbVertex
100
AcDb2dVertex
 10
340
 20
-1200
 70
0
  0
VERTEX
  5
16F
330
16C
100
AcDbEntity
  8
0
100
AcDbVertex
100
AcDb2dVertex
 10
400
 20
-1200
 70
0
  0
SEQEND
  5
16D
100
AcDbEntity
  8
0
  0
POLYLINE
  5
170
330
1F
100
AcDbEntity
  8
0
100
AcDb2dPolyline
 66
1
 70
0
 10
0
 20
0
 30
0
 40
2
 41
2
  0
VERTEX
  5
172
330
170
100
AcDbEntity
  8
0
100
AcDbVertex
100
AcDb2dVertex
 10
340
 20
-1220
 70
0
  0
VERTEX
  5
173
330
170
100
AcDbEntity
  8
0
100
AcDbVertex
100
AcDb2dVertex
 10
400
 20
-1220
 70
0
  0
SEQEND
  5
171
100
AcDbEntity
  8
0
  0
POLYLINE
  5
174
330
1F
100
AcDbEntity
  8
0
100
AcDb2dPolyline
 66
1
 70
0
 10
0
 20
0
 30
0
 40
2
 41
2
  0
VERTEX
  5
176
330
174
100
AcDbEntity
  8
0
100
AcDbVertex
100
AcDb2dVertex
 10
340
 20
-1220
 70
0
  0
VERTEX
  5
177
330
174
100
AcDbEntity
  8
0
100
AcDbVertex
100
AcDb2dVertex
 10
340
 20
-1200
 70
0
  0
SEQEND
  5
175
100
AcDbEntity
  8
0
  0
POLYLINE
  5
178
330
1F
100
AcDbEntity
  8
0
100
AcDb2dPolyline
 66
1
 70
0
 10
0
 20
0
 30
0
 40
2
 41
2
  0
VERTEX
  5
17A
330
178
100
AcDbEntity
  8
0
100
AcDbVertex
100
AcDb2dVertex
 10
320
 20
-1190
 70
0
  0
VERTEX
  5
17B
330
178
100
AcDbEntity
  8
0
100
AcDbVertex
100
AcDb2dVertex
 10
340
 20
-1210
 70
0
  0
SEQEND
  5
179
100
AcDbEntity
  8
0
  0
POLYLINE
  5
17C
330
1F
100
AcDbEntity
  8
0
100
AcDb2dPolyline
 66
1
 70
0
 10
0
 20
0
 30
0
 40
2
 41
2
  0
VERTEX
  5
17E
330
17C
100
AcDbEntity
  8
0
100
AcDbVertex
100
AcDb2dVertex
 10
320
 20
-1230
 70
0
  0
VERTEX
  5
17F
330
17C
100
AcDbEntity
  8
0
100
AcDbVertex
100
AcDb2dVertex
 10
340
 20
-1210
 70
0
  0
SEQEND
  5
17D
100
AcDbEntity
  8
0
  0
POLYLINE
  5
180
330
1F
100
AcDbEntity
  8
0
100
AcDb2dPolyline
 66
1
 70
0
 10
0
 20
0
 30
0
 40
2
 41
2
  0
VERTEX
  5
182
330
180
100
AcDbEntity
  8
0
100
AcDbVertex
100
AcDb2dVertex
 10
280
 20
-1190
 70
0
  0
VERTEX
  5
183
330
180
100
AcDbEntity
  8
0
100
AcDbVertex
100
AcDb2dVertex
 10
320
 20
-1190
 70
0
  0
SEQEND
  5
181
100
AcDbEntity
  8
0
  0
POLYLINE
  5
184
330
1F
100
AcDbEntity
  8
0
100
AcDb2dPolyline
 66
1
 70
0
 10
0
 20
0
 30
0
 40
2
 41
2
  0
VERTEX
  5
186
330
184
100
AcDbEntity
  8
0
100
AcDbVertex
100
AcDb2dVertex
 10
280
 20
-1230
 70
0
  0
VERTEX
  5
187
330
184
100
AcDbEntity
  8
0
100
AcDbVertex
100
AcDb2dVertex
 10
320
 20
-1230
 70
0
  0
SEQEND
  5
185
100
AcDbEntity
  8
0
  0
MTEXT
  5
188
330
1F
100
AcDbEntity
  8
0
100
AcDbMText
 10
1000
 20
-1301
 30
0
 11
1
 21
0
 31
0
 40
23
 41
0
 46
0
 71
5
 72
5
  1
- ochraný plastový krk 13 - 4 m      kabel - 8x0,7 - 4,9 m
  7
Arial
 73
1
 90
0
  0
HATCH
  5
189
330
1F
100
AcDbEntity
  8
0
 62
18
420
0
100
AcDbHatch
 10
0
 20
0
 30
0
210
0
220
0
230
1
  2

 70
0
 71
0
 91
1
 92
16
 93
4
 72
1
 10
400
 20
-1020
 11
1780
 21
-1020
 72
1
 10
1780
 20
-1020
 11
1780
 21
-960
 72
1
 10
1780
 20
-960
 11
400
 21
-960
 72
1
 10
400
 20
-960
 11
400
 21
-1020
 97
0
 75
0
 76
0
 52
0
 41
1
 77
0
 78
1
 53
90
 43
0
 44
0
 45
20
 46
0
 79
1
 49
0.02
 98
0
  0
POLYLINE
  5
18A
330
1F
100
AcDbEntity
  8
0
100
AcDb2dPolyline
 66
1
 70
1
 10
0
 20
0
 30
0
 40
2
 41
2
  0
VERTEX
  5
18C
330
18A
100
AcDbEntity
  8
0
100
AcDbVertex
100
AcDb2dVertex
 10
400
 20
-1020
 70
0
  0
VERTEX
  5
18D
330
18A
100
AcDbEntity
  8
0
100
AcDbVertex
100
AcDb2dVertex
 10
1780
 20
-1020
 70
0
  0
VERTEX
  5
18E
330
18A
100
AcDbEntity
  8
0
100
AcDbVertex
100
AcDb2dVertex
 10
1780
 20
-960
 70
0
  0
VERTEX
  5
18F
330
18A
100
AcDbEntity
  8
0
100
AcDbVertex
100
AcDb2dVertex
 10
400
 20
-960
 70
0
  0
SEQEND
  5
18B
100
AcDbEntity
  8
0
  0
POLYLINE
  5
190
330
1F
100
AcDbEntity
  8
0
100
AcDb2dPolyline
 66
1
 70
0
 10
0
 20
0
 30
0
 40
2
 41
2
  0
VERTEX
  5
192
330
190
100
AcDbEntity
  8
0
100
AcDbVertex
100
AcDb2dVertex
 10
1780
 20
-980
 70
0
  0
VERTEX
  5
193
330
190
100
AcDbEntity
  8
0
100
AcDbVertex
100
AcDb2dVertex
 10
1960
 20
-980
 70
0
  0
SEQEND
  5
191
100
AcDbEntity
  8
0
  0
POLYLINE
  5
194
330
1F
100
AcDbEntity
  8
0
100
AcDb2dPolyline
 66
1
 70
0
 10
0
 20
0
 30
0
 40
2
 41
2
  0
VERTEX
  5
196
330
194
100
AcDbEntity
  8
0
100
AcDbVertex
100
AcDb2dVertex
 10
1780
 20
-1000
 70
0
  0
VERTEX
  5
197
330
194
100
AcDbEntity
  8
0
100
AcDbVertex
100
AcDb2dVertex
 10
1960
 20
-1000
 70
0
  0
SEQEND
  5
195
100
AcDbEntity
  8
0
  0
POLYLINE
  5
198
330
1F
100
AcDbEntity
  8
0
100
AcDb2dPolyline
 66
1
 70
0
 10
0
 20
0
 30
0
 40
2
 41
2
  0
VERTEX
  5
19A
330
198
100
AcDbEntity
  8
0
100
AcDbVertex
100
AcDb2dVertex
 10
1960
 20
-1000
 70
0
  0
VERTEX
  5
19B
330
198
100
AcDbEntity
  8
0
100
AcDbVertex
100
AcDb2dVertex
 10
1960
 20
-980
 70
0
  0
SEQEND
  5
199
100
AcDbEntity
  8
0
  0
POLYLINE
  5
19C
330
1F
100
AcDbEntity
  8
0
100
AcDb2dPolyline
 66
1
 70
0
 10
0
 20
0
 30
0
 40
2
 41
2
  0
VERTEX
  5
19E
330
19C
100
AcDbEntity
  8
0
100
AcDbVertex
100
AcDb2dVertex
 10
1960
 20
-990
 70
0
  0
VERTEX
  5
19F
330
19C
100
AcDbEntity
  8
0
100
AcDbVertex
100
AcDb2dVertex
 10
1980
 20
-1010
 70
0
  0
SEQEND
  5
19D
100
AcDbEntity
  8
0
  0
POLYLINE
  5
1A0
330
1F
100
AcDbEntity
  8
0
100
AcDb2dPolyline
 66
1
 70
0
 10
0
 20
0
 30
0
 40
2
 41
2
  0
VERTEX
  5
1A2
330
1A0
100
AcDbEntity
  8
0
100
AcDbVertex
100
AcDb2dVertex
 10
1960
 20
-990
 70
0
  0
VERTEX
  5
1A3
330
1A0
100
AcDbEntity
  8
0
100
AcDbVertex
100
AcDb2dVertex
 10
1980
 20
-970
 70
0
  0
SEQEND
  5
1A1
100
AcDbEntity
  8
0
  0
POLYLINE
  5
1A4
330
1F
100
AcDbEntity
  8
0
100
AcDb2dPolyline
 66
1
 70
0
 10
0
 20
0
 30
0
 40
2
 41
2
  0
VERTEX
  5
1A6
330
1A4
100
AcDbEntity
  8
0
100
AcDbVertex
100
AcDb2dVertex
 10
1980
 20
-970
 70
0
  0
VERTEX
  5
1A7
330
1A4
100
AcDbEntity
  8
0
100
AcDbVertex
100
AcDb2dVertex
 10
2020
 20
-970
 70
0
  0
SEQEND
  5
1A5
100
AcDbEntity
  8
0
  0
POLYLINE
  5
1A8
330
1F
100
AcDbEntity
  8
0
100
AcDb2dPolyline
 66
1
 70
0
 10
0
 20
0
 30
0
 40
2
 41
2
  0
VERTEX
  5
1AA
330
1A8
100
AcDbEntity
  8
0
100
AcDbVertex
100
AcDb2dVertex
 10
1980
 20
-1010
 70
0
  0
VERTEX
  5
1AB
330
1A8
100
AcDbEntity
  8
0
100
AcDbVertex
100
AcDb2dVertex
 10
2020
 20
-1010
 70
0
  0
SEQEND
  5
1A9
100
AcDbEntity
  8
0
  0
POLYLINE
  5
1AC
330
1F
100
AcDbEntity
  8
0
100
AcDb2dPolyline
 66
1
 70
0
 10
0
 20
0
 30
0
 40
2
 41
2
  0
VERTEX
  5
1AE
330
1AC
100
AcDbEntity
  8
0
100
AcDbVertex
100
AcDb2dVertex
 10
340
 20
-980
 70
0
  0
VERTEX
  5
1AF
330
1AC
100
AcDbEntity
  8
0
100
AcDbVertex
100
AcDb2dVertex
 10
400
 20
-980
 70
0
  0
SEQEND
  5
1AD
100
AcDbEntity
  8
0
  0
POLYLINE
  5
1B0
330
1F
100
AcDbEntity
  8
0
100
AcDb2dPolyline
 66
1
 70
0
 10
0
 20
0
 30
0
 40
2
 41
2
  0
VERTEX
  5
1B2
330
1B0
100
AcDbEntity
  8
0
100
AcDbVertex
100
AcDb2dVertex
 10
340
 20
-1000
 70
0
  0
VERTEX
  5
1B3
330
1B0
100
AcDbEntity
  8
0
100
AcDbVertex
100
AcDb2dVertex
 10
400
 20
-1000
 70
0
  0
SEQEND
  5
1B1
100
AcDbEntity
  8
0
  0
POLYLINE
  5
1B4
330
1F
100
AcDbEntity
  8
0
100
AcDb2dPolyline
 66
1
 70
0
 10
0
 20
0
 30
0
 40
2
 41
2
  0
VERTEX
  5
1B6
330
1B4
100
AcDbEntity
  8
0
100
AcDbVertex
100
AcDb2dVertex
 10
340
 20
-1000
 70
0
  0
VERTEX
  5
1B7
330
1B4
100
AcDbEntity
  8
0
100
AcDbVertex
100
AcDb2dVertex
 10
340
 20
-980
 70
0
  0
SEQEND
  5
1B5
100
AcDbEntity
  8
0
  0
POLYLINE
  5
1B8
330
1F
100
AcDbEntity
  8
0
100
AcDb2dPolyline
 66
1
 70
0
 10
0
 20
0
 30
0
 40
2
 41
2
  0
VERTEX
  5
1BA
330
1B8
100
AcDbEntity
  8
0
100
AcDbVertex
100
AcDb2dVertex
 10
320
 20
-970
 70
0
  0
VERTEX
  5
1BB
330
1B8
100
AcDbEntity
  8
0
100
AcDbVertex
100
AcDb2dVertex
 10
340
 20
-990
 70
0
  0
SEQEND
  5
1B9
100
AcDbEntity
  8
0
  0
POLYLINE
  5
1BC
330
1F
100
AcDbEntity
  8
0
100
AcDb2dPolyline
 66
1
 70
0
 10
0
 20
0
 30
0
 40
2
 41
2
  0
VERTEX
  5
1BE
330
1BC
100
AcDbEntity
  8
0
100
AcDbVertex
100
AcDb2dVertex
 10
320
 20
-1010
 70
0
  0
VERTEX
  5
1BF
330
1BC
100
AcDbEntity
  8
0
100
AcDbVertex
100
AcDb2dVertex
 10
340
 20
-990
 70
0
  0
SEQEND
  5
1BD
100
AcDbEntity
  8
0
  0
POLYLINE
  5
1C0
330
1F
100
AcDbEntity
  8
0
100
AcDb2dPolyline
 66
1
 70
0
 10
0
 20
0
 30
0
 40
2
 41
2
  0
VERTEX
  5
1C2
330
1C0
100
AcDbEntity
  8
0
100
AcDbVertex
100
AcDb2dVertex
 10
280
 20
-970
 70
0
  0
VERTEX
  5
1C3
330
1C0
100
AcDbEntity
  8
0
100
AcDbVertex
100
AcDb2dVertex
 10
320
 20
-970
 70
0
  0
SEQEND
  5
1C1
100
AcDbEntity
  8
0
  0
POLYLINE
  5
1C4
330
1F
100
AcDbEntity
  8
0
100
AcDb2dPolyline
 66
1
 70
0
 10
0
 20
0
 30
0
 40
2
 41
2
  0
VERTEX
  5
1C6
330
1C4
100
AcDbEntity
  8
0
100
AcDbVertex
100
AcDb2dVertex
 10
280
 20
-1010
 70
0
  0
VERTEX
  5
1C7
330
1C4
100
AcDbEntity
  8
0
100
AcDbVertex
100
AcDb2dVertex
 10
320
 20
-1010
 70
0
  0
SEQEND
  5
1C5
100
AcDbEntity
  8
0
  0
MTEXT
  5
1C8
330
1F
100
AcDbEntity
  8
0
100
AcDbMText
 10
1120
 20
-1081
 30
0
 11
1
 21
0
 31
0
 40
23
 41
0
 46
0
 71
5
 72
5
  1
- ochraný plastový krk 13 - 2,3 m(6m)      kabel - 8x0,7 - 2,7 m(6,4m)
  7
Arial
 73
1
 90
0
  0
HATCH
  5
1C9
330
1F
100
AcDbEntity
  8
0
 62
18
420
0
100
AcDbHatch
 10
0
 20
0
 30
0
210
0
220
0
230
1
  2

 70
0
 71
0
 91
1
 92
16
 93
4
 72
1
 10
400
 20
-1500
 11
1000
 21
-1500
 72
1
 10
1000
 20
-1500
 11
1000
 21
-1440
 72
1
 10
1000
 20
-1440
 11
400
 21
-1440
 72
1
 10
400
 20
-1440
 11
400
 21
-1500
 97
0
 75
0
 76
0
 52
0
 41
1
 77
0
 78
1
 53
90
 43
0
 44
0
 45
20
 46
0
 79
1
 49
0.02
 98
0
  0
POLYLINE
  5
1CA
330
1F
100
AcDbEntity
  8
0
100
AcDb2dPolyline
 66
1
 70
1
 10
0
 20
0
 30
0
 40
2
 41
2
  0
VERTEX
  5
1CC
330
1CA
100
AcDbEntity
  8
0
100
AcDbVertex
100
AcDb2dVertex
 10
400
 20
-1500
 70
0
  0
VERTEX
  5
1CD
330
1CA
100
AcDbEntity
  8
0
100
AcDbVertex
100
AcDb2dVertex
 10
1000
 20
-1500
 70
0
  0
VERTEX
  5
1CE
330
1CA
100
AcDbEntity
  8
0
100
AcDbVertex
100
AcDb2dVertex
 10
1000
 20
-1440
 70
0
  0
VERTEX
  5
1CF
330
1CA
100
AcDbEntity
  8
0
100
AcDbVertex
100
AcDb2dVertex
 10
400
 20
-1440
 70
0
  0
SEQEND
  5
1CB
100
AcDbEntity
  8
0
  0
MTEXT
  5
1D0
330
1F
100
AcDbEntity
  8
0
100
AcDbMText
 10
1520
 20
-1461
 30
0
 11
1
 21
0
 31
0
 40
23
 41
0
 46
0
 71
5
 72
5
  1
- ochraný plastový krk 13 - 660mm - ventilátor
  7
Arial
 73
1
 90
0
  0
MTEXT
  5
1D1
330
1F
100
AcDbEntity
  8
0
100
AcDbMText
 10
910
 20
-360
 30
0
 11
1
 21
0
 31
0
 40
23
 41
0
 46
0
 71
5
 72
5
  1
T rozbočka\P16/13/13
  7
Arial
 73
1
 90
0
  0
POLYLINE
  5
1D2
330
1F
100
AcDbEntity
  8
0
100
AcDb2dPolyline
 66
1
 70
0
 10
0
 20
0
 30
0
 40
2
 41
2
  0
VERTEX
  5
1D4
330
1D2
100
AcDbEntity
  8
0
100
AcDbVertex
100
AcDb2dVertex
 10
1040
 20
-280
 70
0
  0
VERTEX
  5
1D5
330
1D2
100
AcDbEntity
  8
0
100
AcDbVertex
100
AcDb2dVertex
 10
1080
 20
-240
 70
0
  0
SEQEND
  5
1D3
100
AcDbEntity
  8
0
  0
POLYLINE
  5
1D6
330
1F
100
AcDbEntity
  8
0
100
AcDb2dPolyline
 66
1
 70
0
 10
0
 20
0
 30
0
 40
2
 41
2
  0
VERTEX
  5
1D8
330
1D6
100
AcDbEntity
  8
0
100
AcDbVertex
100
AcDb2dVertex
 10
1055
 20
-251
 70
0
  0
VERTEX
  5
1D9
330
1D6
100
AcDbEntity
  8
0
100
AcDbVertex
100
AcDb2dVertex
 10
1080
 20
-240
 70
0
  0
VERTEX
  5
1DA
330
1D6
100
AcDbEntity
  8
0
100
AcDbVertex
100
AcDb2dVertex
 10
1069
 20
-265
 70
0
  0
SEQEND
  5
1D7
100
AcDbEntity
  8
0
  0
MTEXT
  5
1DB
330
1F
100
AcDbEntity
  8
0
100
AcDbMText
 10
1610
 20
-360
 30
0
 11
1
 21
0
 31
0
 40
23
 41
0
 46
0
 71
5
 72
5
  1
Y rozbočka\P13/13/13
  7
Arial
 73
1
 90
0
  0
POLYLINE
  5
1DC
330
1F
100
AcDbEntity
  8
0
100
AcDb2dPolyline
 66
1
 70
0
 10
0
 20
0
 30
0
 40
2
 41
2
  0
VERTEX
  5
1DE
330
1DC
100
AcDbEntity
  8
0
100
AcDbVertex
100
AcDb2dVertex
 10
1700
 20
-280
 70
0
  0
VERTEX
  5
1DF
330
1DC
100
AcDbEntity
  8
0
100
AcDbVertex
100
AcDb2dVertex
 10
1740
 20
-240
 70
0
  0
SEQEND
  5
1DD
100
AcDbEntity
  8
0
  0
POLYLINE
  5
1E0
330
1F
100
AcDbEntity
  8
0
100
AcDb2dPolyline
 66
1
 70
0
 10
0
 20
0
 30
0
 40
2
 41
2
  0
VERTEX
  5
1E2
330
1E0
100
AcDbEntity
  8
0
100
AcDbVertex
100
AcDb2dVertex
 10
1715
 20
-251
 70
0
  0
VERTEX
  5
1E3
330
1E0
100
AcDbEntity
  8
0
100
AcDbVertex
100
AcDb2dVertex
 10
1740
 20
-240
 70
0
  0
VERTEX
  5
1E4
330
1E0
100
AcDbEntity
  8
0
100
AcDbVertex
100
AcDb2dVertex
 10
1729
 20
-265
 70
0
  0
SEQEND
  5
1E1
100
AcDbEntity
  8
0
  0
INSERT
  5
1E5
330
1F
100
AcDbEntity
  8
0
100
AcDbBlockReference
  2
C--Program_Files-ProfiCAD-proficad_library-_TB-standard4_new-ptb
 10
2290
 20
-1840
 30
0
 41
1
 42
1
 43
1
 50
0
  0
POLYLINE
  5
1E7
330
1F
100
AcDbEntity
  8
0
100
AcDb2dPolyline
 66
1
 70
1
 10
0
 20
0
 30
0
 40
5
 41
5
  0
VERTEX
  5
1E9
330
1E7
100
AcDbEntity
  8
0
100
AcDbVertex
100
AcDb2dVertex
 10
0
 20
-1900
 70
0
  0
VERTEX
  5
1EA
330
1E7
100
AcDbEntity
  8
0
100
AcDbVertex
100
AcDb2dVertex
 10
2770
 20
-1900
 70
0
  0
VERTEX
  5
1EB
330
1E7
100
AcDbEntity
  8
0
100
AcDbVertex
100
AcDb2dVertex
 10
2770
 20
0
 70
0
  0
VERTEX
  5
1EC
330
1E7
100
AcDbEntity
  8
0
100
AcDbVertex
100
AcDb2dVertex
 10
0
 20
0
 70
0
  0
SEQEND
  5
1E8
100
AcDbEntity
  8
0
  0
ENDSEC
  0
SECTION
  2
OBJECTS
  0
DICTIONARY
  5
C
330
0
100
AcDbDictionary
280
0
281
1
  3
ACAD_SCALELIST
350
202
  3
ACAD_COLOR
350
214
  3
ACAD_FIELDLIST
350
215
  3
ACAD_GROUP
350
D
  3
ACAD_IMAGE_DICT
350
216
  3
ACAD_LAYOUT
350
1A
  3
ACAD_MATERIAL
350
218
  3
ACAD_MLEADERSTYLE
350
219
  3
ACAD_MLINESTYLE
350
17
  3
ACAD_PLOTSETTINGS
350
19
  3
ACAD_PLOTSTYLENAME
350
E
  3
ACAD_TABLESTYLE
350
21B
  3
ACDB_RECOMPOSE_DATA
350
21F
  3
AcDbVariableDictionary
350
220
  3
ACAD_VISUALSTYLE
350
225
  0
DICTIONARY
  5
21D
330
21C
100
AcDbDictionary
280
0
281
1
  3
ACAD_ROUNDTRIP_2008_TABLESTYLE_CELLSTYLEMAP
360
21E
  0
DICTIONARY
  5
202
102
{ACAD_REACTORS
330
C
102
}
330
C
100
AcDbDictionary
280
0
281
1
  3
A0
350
203
  3
A1
350
204
  3
A2
350
205
  3
A3
350
206
  3
A4
350
207
  3
A5
350
208
  3
A6
350
209
  3
A7
350
20A
  3
A8
350
20B
  3
A9
350
20C
  3
B0
350
20D
  3
B1
350
20E
  3
B2
350
20F
  3
B3
350
210
  3
B4
350
211
  3
B5
350
212
  3
B6
350
213
  0
DICTIONARY
  5
214
102
{ACAD_REACTORS
330
C
102
}
330
C
100
AcDbDictionary
280
0
281
1
  0
FIELDLIST
  5
215
102
{ACAD_REACTORS
330
C
102
}
330
C
100
AcDbIdSet
100
AcDbFieldList
  0
DICTIONARY
  5
D
102
{ACAD_REACTORS
330
C
102
}
330
C
100
AcDbDictionary
280
0
281
1
  0
DICTIONARY
  5
216
102
{ACAD_REACTORS
330
C
102
}
330
C
100
AcDbDictionary
280
0
281
1
  3
C:\Users\vjedl\AppData\Local\Temp\76a39edc-7d89-4562-9e93-a3e84d62ef91.jpg
350
217
  0
DICTIONARY
  5
1A
102
{ACAD_REACTORS
330
C
102
}
330
C
100
AcDbDictionary
280
0
281
1
  3
Layout1
350
1E
  3
Model
350
22
  0
DICTIONARY
  5
218
102
{ACAD_REACTORS
330
C
102
}
330
C
100
AcDbDictionary
280
0
281
1
  0
DICTIONARY
  5
219
102
{ACAD_REACTORS
330
C
102
}
330
C
100
AcDbDictionary
280
0
281
1
  3
Standard
350
21A
  0
DICTIONARY
  5
17
102
{ACAD_REACTORS
330
C
102
}
330
C
100
AcDbDictionary
280
0
281
1
  3
STANDARD
350
18
  0
DICTIONARY
  5
19
102
{ACAD_REACTORS
330
C
102
}
330
C
100
AcDbDictionary
280
0
281
1
  0
ACDBDICTIONARYWDFLT
  5
E
102
{ACAD_REACTORS
330
C
102
}
330
C
100
AcDbDictionary
280
0
281
1
  3
Normal
350
F
100
AcDbDictionaryWithDefault
340
F
  0
ACDBPLACEHOLDER
  5
F
102
{ACAD_REACTORS
330
E
102
}
330
E
  0
DICTIONARY
  5
21B
102
{ACAD_REACTORS
330
C
102
}
330
C
100
AcDbDictionary
280
0
281
1
  3
Standard
350
21C
  0
XRECORD
  5
21F
102
{ACAD_REACTORS
330
C
102
}
330
C
100
AcDbXrecord
280
1
 90
1
330
21C
  0
DICTIONARY
  5
220
102
{ACAD_REACTORS
330
C
102
}
330
C
100
AcDbDictionary
280
0
281
1
  3
DIMASSOC
350
221
  3
HIDETEXT
350
222
  3
MSLTSCALE
350
223
  3
PSLTSCALE
350
224
  0
DICTIONARY
  5
225
102
{ACAD_REACTORS
330
C
102
}
330
C
100
AcDbDictionary
280
0
281
1
  0
CELLSTYLEMAP
  5
21E
102
{ACAD_REACTORS
330
21D
102
}
330
21D
100
AcDbCellStyleMap
 90
3
300
CELLSTYLE
  1
TABLEFORMAT_BEGIN
 90
5
170
0
309
TABLEFORMAT_END
  1
CELLSTYLE_BEGIN
 90
3
 91
2
300
_DATA
309
CELLSTYLE_END
300
CELLSTYLE
  1
TABLEFORMAT_BEGIN
 90
5
170
0
309
TABLEFORMAT_END
  1
CELLSTYLE_BEGIN
 90
1
 91
1
300
_TITLE
309
CELLSTYLE_END
300
CELLSTYLE
  1
TABLEFORMAT_BEGIN
 90
5
170
0
309
TABLEFORMAT_END
  1
CELLSTYLE_BEGIN
 90
2
 91
1
300
_HEADER
309
CELLSTYLE_END
  0
SCALE
  5
203
102
{ACAD_REACTORS
330
202
102
}
330
202
100
AcDbScale
 70
0
300
1:1
140
1
141
1
290
1
  0
SCALE
  5
204
102
{ACAD_REACTORS
330
202
102
}
330
202
100
AcDbScale
 70
0
300
1:2
140
1
141
2
290
0
  0
SCALE
  5
205
102
{ACAD_REACTORS
330
202
102
}
330
202
100
AcDbScale
 70
0
300
1:4
140
1
141
4
290
0
  0
SCALE
  5
206
102
{ACAD_REACTORS
330
202
102
}
330
202
100
AcDbScale
 70
0
300
1:5
140
1
141
5
290
0
  0
SCALE
  5
207
102
{ACAD_REACTORS
330
202
102
}
330
202
100
AcDbScale
 70
0
300
1:8
140
1
141
8
290
0
  0
SCALE
  5
208
102
{ACAD_REACTORS
330
202
102
}
330
202
100
AcDbScale
 70
0
300
1:10
140
1
141
10
290
0
  0
SCALE
  5
209
102
{ACAD_REACTORS
330
202
102
}
330
202
100
AcDbScale
 70
0
300
1:16
140
1
141
16
290
0
  0
SCALE
  5
20A
102
{ACAD_REACTORS
330
202
102
}
330
202
100
AcDbScale
 70
0
300
1:20
140
1
141
20
290
0
  0
SCALE
  5
20B
102
{ACAD_REACTORS
330
202
102
}
330
202
100
AcDbScale
 70
0
300
1:30
140
1
141
30
290
0
  0
SCALE
  5
20C
102
{ACAD_REACTORS
330
202
102
}
330
202
100
AcDbScale
 70
0
300
1:40
140
1
141
40
290
0
  0
SCALE
  5
20D
102
{ACAD_REACTORS
330
202
102
}
330
202
100
AcDbScale
 70
0
300
1:50
140
1
141
50
290
0
  0
SCALE
  5
20E
102
{ACAD_REACTORS
330
202
102
}
330
202
100
AcDbScale
 70
0
300
1:100
140
1
141
100
290
0
  0
SCALE
  5
20F
102
{ACAD_REACTORS
330
202
102
}
330
202
100
AcDbScale
 70
0
300
2:1
140
2
141
1
290
0
  0
SCALE
  5
210
102
{ACAD_REACTORS
330
202
102
}
330
202
100
AcDbScale
 70
0
300
4:1
140
4
141
1
290
0
  0
SCALE
  5
211
102
{ACAD_REACTORS
330
202
102
}
330
202
100
AcDbScale
 70
0
300
8:1
140
8
141
1
290
0
  0
SCALE
  5
212
102
{ACAD_REACTORS
330
202
102
}
330
202
100
AcDbScale
 70
0
300
10:1
140
10
141
1
290
0
  0
SCALE
  5
213
102
{ACAD_REACTORS
330
202
102
}
330
202
100
AcDbScale
 70
0
300
100:1
140
100
141
1
290
0
  0
IMAGEDEF
  5
217
102
{ACAD_REACTORS
330
216
102
}
330
216
100
AcDbRasterImageDef
 90
0
  1
C:\Users\vjedl\AppData\Local\Temp\76a39edc-7d89-4562-9e93-a3e84d62ef91.jpg
 10
650
 20
290
 11
1
 21
1
280
1
281
0
  0
LAYOUT
  5
1E
102
{ACAD_REACTORS
330
1A
102
}
330
1A
100
AcDbPlotSettings
  1

  2
C:\Program Files\AutoCAD 2002\plotters\DWF ePlot (optimized for plotting).pc3
  4

  6

 40
0
 41
0
 42
0
 43
0
 44
0
 45
0
 46
0
 47
0
 48
0
 49
0
140
0
141
0
142
1
143
1
 70
688
 72
1
 73
1
 74
5
  7
acad.stb
 75
16
 76
0
 77
0
 78
0
147
1
148
0
149
0
100
AcDbLayout
  1
Layout1
 70
1
 71
1
 10
0
 20
0
 11
420
 21
297
 12
0
 22
0
 32
0
 14
0
 24
0
 34
0
 15
0
 25
0
 35
0
146
0
 13
0
 23
0
 33
0
 16
1
 26
0
 36
0
 17
0
 27
1
 37
0
 76
0
330
1ED
  0
LAYOUT
  5
22
102
{ACAD_REACTORS
330
1A
102
}
330
1A
100
AcDbPlotSettings
  1

  2
C:\Program Files\AutoCAD 2002\plotters\DWF ePlot (optimized for plotting).pc3
  4

  6

 40
0
 41
0
 42
0
 43
0
 44
0
 45
0
 46
0
 47
0
 48
0
 49
0
140
0
141
0
142
1
143
1
 70
1712
 72
1
 73
1
 74
0
  7
acad.stb
 75
0
 76
0
 77
0
 78
0
147
1
148
0
149
0
100
AcDbLayout
  1
Model
 70
1
 71
0
 10
0
 20
0
 11
12
 21
9
 12
0
 22
0
 32
0
 14
0
 24
0
 34
0
 15
0
 25
0
 35
0
146
0
 13
0
 23
0
 33
0
 16
1
 26
0
 36
0
 17
0
 27
1
 37
0
 76
0
330
1F
  0
MLEADERSTYLE
  5
21A
102
{ACAD_REACTORS
330
219
102
}
330
219
100
AcDbMLeaderStyle
170
2
171
1
172
0
 90
2
 40
0
 41
0
173
1
 91
0
340
0
 92
-2
290
1
 42
0.09
292
1
 43
0.36
  3
Standard
341
0
 44
0.18
300

342
0
174
1
178
1
175
1
176
0
 93
0
 45
0.18
292
0
297
0
 46
0
343
0
 94
0
 47
1
 49
1
140
1
293
1
141
0
294
1
177
0
142
1
295
0
296
0
143
0.125
  0
MLINESTYLE
  5
18
102
{ACAD_REACTORS
330
17
102
}
330
17
100
AcDbMlineStyle
  2
STANDARD
 70
0
  3

 51
90
 52
90
 71
2
 49
0.5
 62
0
  6
ByLayer
 49
-0.5
 62
0
  6
ByLayer
  0
TABLESTYLE
  5
21C
102
{ACAD_XDICTIONARY
360
21D
102
}
102
{ACAD_REACTORS
330
21B
102
}
330
21B
100
AcDbTableStyle
  3
Standard
 70
0
 71
0
 40
0.06
 41
0.06
280
0
281
0
  7
Standard
140
0.18
170
1
 62
0
283
0
 90
512
 91
0
274
-2
284
1
 64
0
275
-2
285
1
 65
0
276
-2
286
1
 66
0
277
-2
287
1
 67
0
278
-2
288
1
 68
0
279
-2
289
1
 69
0
  7
Standard
140
0.18
170
1
 62
0
283
0
 90
512
 91
0
274
-2
284
1
 64
0
275
-2
285
1
 65
0
276
-2
286
1
 66
0
277
-2
287
1
 67
0
278
-2
288
1
 68
0
279
-2
289
1
 69
0
  7
Standard
140
0.18
170
1
 62
0
283
0
 90
512
 91
0
274
-2
284
1
 64
0
275
-2
285
1
 65
0
276
-2
286
1
 66
0
277
-2
287
1
 67
0
278
-2
288
1
 68
0
279
-2
289
1
 69
0
  0
DICTIONARYVAR
  5
221
102
{ACAD_REACTORS
330
220
102
}
330
220
100
DictionaryVariables
280
0
  1
1
  0
DICTIONARYVAR
  5
222
102
{ACAD_REACTORS
330
220
102
}
330
220
100
DictionaryVariables
280
0
  1
2
  0
DICTIONARYVAR
  5
223
102
{ACAD_REACTORS
330
220
102
}
330
220
100
DictionaryVariables
280
0
  1
0
  0
DICTIONARYVAR
  5
224
102
{ACAD_REACTORS
330
220
102
}
330
220
100
DictionaryVariables
280
0
  1
0
  0
ENDSEC
999
Created By CadLib version 4.0.38.239
999
CadLib website: www.woutware.com
  0
EOF
